<?xml version="1.0" encoding="UTF-8" standalone="no"?>
<!DOCTYPE svg PUBLIC "-//W3C//DTD SVG 1.1//EN"
 "http://www.w3.org/Graphics/SVG/1.1/DTD/svg11.dtd">
<!-- Generated by graphviz version 5.0.0 (20220707.1540)
 -->
<!-- Title: dependencies Pages: 1 -->
<svg width="282pt" height="174pt"
 viewBox="0.00 0.00 282.00 173.80" xmlns="http://www.w3.org/2000/svg" xmlns:xlink="http://www.w3.org/1999/xlink">
<g id="graph0" class="graph" transform="scale(1 1) rotate(0) translate(4 169.8)">
<title>dependencies</title>
<polygon fill="white" stroke="transparent" points="-4,4 -4,-169.8 278,-169.8 278,4 -4,4"/>
<text text-anchor="middle" x="137" y="-8.2" font-family="sans-serif" font-size="14.00">dependencies</text>
<g id="clust1" class="cluster">
<title>cluster_V2Module</title>
<polygon fill="none" stroke="black" stroke-dasharray="1,5" points="8,-32.8 8,-157.8 266,-157.8 266,-32.8 8,-32.8"/>
</g>
<g id="clust3" class="cluster">
<title>cluster_V2Module_imports</title>
<polygon fill="none" stroke="black" points="16,-40.8 16,-92.8 258,-92.8 258,-40.8 16,-40.8"/>
</g>
<!-- BlogModule -->
<g id="node1" class="node">
<title>BlogModule</title>
<polygon fill="#8dd3c7" stroke="black" points="250.28,-84.8 247.28,-88.8 226.28,-88.8 223.28,-84.8 163.72,-84.8 163.72,-48.8 250.28,-48.8 250.28,-84.8"/>
<text text-anchor="middle" x="207" y="-62.6" font-family="Times,serif" font-size="14.00">BlogModule</text>
</g>
<!-- V2Module -->
<g id="node3" class="node">
<title>V2Module</title>
<polygon fill="#8dd3c7" stroke="black" points="184.16,-149.8 181.16,-153.8 160.16,-153.8 157.16,-149.8 107.84,-149.8 107.84,-113.8 184.16,-113.8 184.16,-149.8"/>
<text text-anchor="middle" x="146" y="-127.6" font-family="Times,serif" font-size="14.00">V2Module</text>
</g>
<!-- BlogModule&#45;&gt;V2Module -->
<g id="edge1" class="edge">
<title>BlogModule&#45;&gt;V2Module</title>
<path fill="none" stroke="black" d="M173.97,-84.91C173.97,-84.91 173.97,-103.79 173.97,-103.79"/>
<polygon fill="black" stroke="black" points="170.47,-103.79 173.97,-113.79 177.47,-103.79 170.47,-103.79"/>
</g>
<!-- V2RoutingModule -->
<g id="node2" class="node">
<title>V2RoutingModule</title>
<polygon fill="#8dd3c7" stroke="black" points="145.78,-84.8 142.78,-88.8 121.78,-88.8 118.78,-84.8 24.22,-84.8 24.22,-48.8 145.78,-48.8 145.78,-84.8"/>
<text text-anchor="middle" x="85" y="-62.6" font-family="Times,serif" font-size="14.00">V2RoutingModule</text>
</g>
<!-- V2RoutingModule&#45;&gt;V2Module -->
<g id="edge2" class="edge">
<title>V2RoutingModule&#45;&gt;V2Module</title>
<path fill="none" stroke="black" d="M126.78,-84.91C126.78,-84.91 126.78,-103.79 126.78,-103.79"/>
<polygon fill="black" stroke="black" points="123.28,-103.79 126.78,-113.79 130.28,-103.79 123.28,-103.79"/>
</g>
</g>
</svg>
