<?xml version="1.0" encoding="UTF-8" standalone="no"?>
<!DOCTYPE svg PUBLIC "-//W3C//DTD SVG 1.1//EN"
 "http://www.w3.org/Graphics/SVG/1.1/DTD/svg11.dtd">
<!-- Generated by graphviz version 5.0.0 (20220707.1540)
 -->
<!-- Title: dependencies Pages: 1 -->
<svg width="411pt" height="247pt"
 viewBox="0.00 0.00 411.00 246.80" xmlns="http://www.w3.org/2000/svg" xmlns:xlink="http://www.w3.org/1999/xlink">
<g id="graph0" class="graph" transform="scale(1 1) rotate(0) translate(4 242.8)">
<title>dependencies</title>
<polygon fill="white" stroke="transparent" points="-4,4 -4,-242.8 407,-242.8 407,4 -4,4"/>
<text text-anchor="middle" x="201.5" y="-8.2" font-family="sans-serif" font-size="14.00">dependencies</text>
<g id="clust1" class="cluster">
<title>cluster_AuthModule</title>
<polygon fill="none" stroke="black" stroke-dasharray="1,5" points="8,-32.8 8,-230.8 395,-230.8 395,-32.8 8,-32.8"/>
</g>
<g id="clust2" class="cluster">
<title>cluster_AuthModule_declarations</title>
<polygon fill="none" stroke="black" points="263,-40.8 263,-92.8 387,-92.8 387,-40.8 263,-40.8"/>
</g>
<g id="clust4" class="cluster">
<title>cluster_AuthModule_imports</title>
<polygon fill="none" stroke="black" points="16,-40.8 16,-92.8 255,-92.8 255,-40.8 16,-40.8"/>
</g>
<g id="clust5" class="cluster">
<title>cluster_AuthModule_exports</title>
<polygon fill="none" stroke="black" points="131,-170.8 131,-222.8 257,-222.8 257,-170.8 131,-170.8"/>
</g>
<!-- SignComponent -->
<g id="node1" class="node">
<title>SignComponent</title>
<polygon fill="#ffffb3" stroke="black" points="378.51,-84.8 271.49,-84.8 271.49,-48.8 378.51,-48.8 378.51,-84.8"/>
<text text-anchor="middle" x="325" y="-62.6" font-family="Times,serif" font-size="14.00">SignComponent</text>
</g>
<!-- AuthModule -->
<g id="node2" class="node">
<title>AuthModule</title>
<polygon fill="#8dd3c7" stroke="black" points="237.55,-149.8 234.55,-153.8 213.55,-153.8 210.55,-149.8 150.45,-149.8 150.45,-113.8 237.55,-113.8 237.55,-149.8"/>
<text text-anchor="middle" x="194" y="-127.6" font-family="Times,serif" font-size="14.00">AuthModule</text>
</g>
<!-- SignComponent&#45;&gt;AuthModule -->
<g id="edge1" class="edge">
<title>SignComponent&#45;&gt;AuthModule</title>
<path fill="none" stroke="black" d="M325,-84.91C325,-104.14 325,-131.8 325,-131.8 325,-131.8 247.62,-131.8 247.62,-131.8"/>
<polygon fill="black" stroke="black" points="247.62,-128.3 237.62,-131.8 247.62,-135.3 247.62,-128.3"/>
</g>
<!-- SignComponent  -->
<g id="node5" class="node">
<title>SignComponent </title>
<polygon fill="#fb8072" stroke="black" points="249.01,-214.8 138.99,-214.8 138.99,-178.8 249.01,-178.8 249.01,-214.8"/>
<text text-anchor="middle" x="194" y="-192.6" font-family="Times,serif" font-size="14.00">SignComponent </text>
</g>
<!-- AuthModule&#45;&gt;SignComponent  -->
<g id="edge4" class="edge">
<title>AuthModule&#45;&gt;SignComponent </title>
<path fill="none" stroke="black" stroke-dasharray="5,2" d="M194,-149.91C194,-149.91 194,-168.79 194,-168.79"/>
<polygon fill="black" stroke="black" points="190.5,-168.79 194,-178.79 197.5,-168.79 190.5,-168.79"/>
</g>
<!-- MaterialModule -->
<g id="node3" class="node">
<title>MaterialModule</title>
<polygon fill="#8dd3c7" stroke="black" points="247.47,-84.8 244.47,-88.8 223.47,-88.8 220.47,-84.8 140.53,-84.8 140.53,-48.8 247.47,-48.8 247.47,-84.8"/>
<text text-anchor="middle" x="194" y="-62.6" font-family="Times,serif" font-size="14.00">MaterialModule</text>
</g>
<!-- MaterialModule&#45;&gt;AuthModule -->
<g id="edge2" class="edge">
<title>MaterialModule&#45;&gt;AuthModule</title>
<path fill="none" stroke="black" d="M194,-84.91C194,-84.91 194,-103.79 194,-103.79"/>
<polygon fill="black" stroke="black" points="190.5,-103.79 194,-113.79 197.5,-103.79 190.5,-103.79"/>
</g>
<!-- SharedModule -->
<g id="node4" class="node">
<title>SharedModule</title>
<polygon fill="#8dd3c7" stroke="black" points="122.43,-84.8 119.43,-88.8 98.43,-88.8 95.43,-84.8 23.57,-84.8 23.57,-48.8 122.43,-48.8 122.43,-84.8"/>
<text text-anchor="middle" x="73" y="-62.6" font-family="Times,serif" font-size="14.00">SharedModule</text>
</g>
<!-- SharedModule&#45;&gt;AuthModule -->
<g id="edge3" class="edge">
<title>SharedModule&#45;&gt;AuthModule</title>
<path fill="none" stroke="black" d="M73,-84.91C73,-104.14 73,-131.8 73,-131.8 73,-131.8 140.32,-131.8 140.32,-131.8"/>
<polygon fill="black" stroke="black" points="140.32,-135.3 150.32,-131.8 140.32,-128.3 140.32,-135.3"/>
</g>
</g>
</svg>
