<?xml version="1.0" encoding="UTF-8" standalone="no"?>
<!DOCTYPE svg PUBLIC "-//W3C//DTD SVG 1.1//EN"
 "http://www.w3.org/Graphics/SVG/1.1/DTD/svg11.dtd">
<!-- Generated by graphviz version 5.0.0 (20220707.1540)
 -->
<!-- Title: dependencies Pages: 1 -->
<svg width="651pt" height="247pt"
 viewBox="0.00 0.00 651.00 246.80" xmlns="http://www.w3.org/2000/svg" xmlns:xlink="http://www.w3.org/1999/xlink">
<g id="graph0" class="graph" transform="scale(1 1) rotate(0) translate(4 242.8)">
<title>dependencies</title>
<polygon fill="white" stroke="transparent" points="-4,4 -4,-242.8 647,-242.8 647,4 -4,4"/>
<text text-anchor="middle" x="321.5" y="-8.2" font-family="sans-serif" font-size="14.00">dependencies</text>
<g id="clust1" class="cluster">
<title>cluster_AdsModule</title>
<polygon fill="none" stroke="black" stroke-dasharray="1,5" points="8,-32.8 8,-230.8 635,-230.8 635,-32.8 8,-32.8"/>
</g>
<g id="clust2" class="cluster">
<title>cluster_AdsModule_declarations</title>
<polygon fill="none" stroke="black" points="263,-40.8 263,-92.8 627,-92.8 627,-40.8 263,-40.8"/>
</g>
<g id="clust6" class="cluster">
<title>cluster_AdsModule_exports</title>
<polygon fill="none" stroke="black" points="97,-170.8 97,-222.8 468,-222.8 468,-170.8 97,-170.8"/>
</g>
<g id="clust5" class="cluster">
<title>cluster_AdsModule_imports</title>
<polygon fill="none" stroke="black" points="16,-40.8 16,-92.8 255,-92.8 255,-40.8 16,-40.8"/>
</g>
<!-- AdsHorizontalComponent -->
<g id="node1" class="node">
<title>AdsHorizontalComponent</title>
<polygon fill="#ffffb3" stroke="black" points="618.76,-84.8 455.24,-84.8 455.24,-48.8 618.76,-48.8 618.76,-84.8"/>
<text text-anchor="middle" x="537" y="-62.6" font-family="Times,serif" font-size="14.00">AdsHorizontalComponent</text>
</g>
<!-- AdsModule -->
<g id="node3" class="node">
<title>AdsModule</title>
<polygon fill="#8dd3c7" stroke="black" points="312.11,-149.8 309.11,-153.8 288.11,-153.8 285.11,-149.8 229.89,-149.8 229.89,-113.8 312.11,-113.8 312.11,-149.8"/>
<text text-anchor="middle" x="271" y="-127.6" font-family="Times,serif" font-size="14.00">AdsModule</text>
</g>
<!-- AdsHorizontalComponent&#45;&gt;AdsModule -->
<g id="edge1" class="edge">
<title>AdsHorizontalComponent&#45;&gt;AdsModule</title>
<path fill="none" stroke="black" d="M539.25,-84.91C539.25,-104.14 539.25,-131.8 539.25,-131.8 539.25,-131.8 322.33,-131.8 322.33,-131.8"/>
<polygon fill="black" stroke="black" points="322.33,-128.3 312.33,-131.8 322.33,-135.3 322.33,-128.3"/>
</g>
<!-- AdsSkyscraperComponent -->
<g id="node2" class="node">
<title>AdsSkyscraperComponent</title>
<polygon fill="#ffffb3" stroke="black" points="437.09,-84.8 270.91,-84.8 270.91,-48.8 437.09,-48.8 437.09,-84.8"/>
<text text-anchor="middle" x="354" y="-62.6" font-family="Times,serif" font-size="14.00">AdsSkyscraperComponent</text>
</g>
<!-- AdsSkyscraperComponent&#45;&gt;AdsModule -->
<g id="edge2" class="edge">
<title>AdsSkyscraperComponent&#45;&gt;AdsModule</title>
<path fill="none" stroke="black" d="M291.51,-84.91C291.51,-84.91 291.51,-103.79 291.51,-103.79"/>
<polygon fill="black" stroke="black" points="288.01,-103.79 291.51,-113.79 295.01,-103.79 288.01,-103.79"/>
</g>
<!-- AdsHorizontalComponent  -->
<g id="node6" class="node">
<title>AdsHorizontalComponent </title>
<polygon fill="#fb8072" stroke="black" points="459.76,-214.8 292.24,-214.8 292.24,-178.8 459.76,-178.8 459.76,-214.8"/>
<text text-anchor="middle" x="376" y="-192.6" font-family="Times,serif" font-size="14.00">AdsHorizontalComponent </text>
</g>
<!-- AdsModule&#45;&gt;AdsHorizontalComponent  -->
<g id="edge5" class="edge">
<title>AdsModule&#45;&gt;AdsHorizontalComponent </title>
<path fill="none" stroke="black" stroke-dasharray="5,2" d="M302.21,-149.91C302.21,-149.91 302.21,-168.79 302.21,-168.79"/>
<polygon fill="black" stroke="black" points="298.71,-168.79 302.21,-178.79 305.71,-168.79 298.71,-168.79"/>
</g>
<!-- AdsSkyscraperComponent  -->
<g id="node7" class="node">
<title>AdsSkyscraperComponent </title>
<polygon fill="#fb8072" stroke="black" points="274.59,-214.8 105.41,-214.8 105.41,-178.8 274.59,-178.8 274.59,-214.8"/>
<text text-anchor="middle" x="190" y="-192.6" font-family="Times,serif" font-size="14.00">AdsSkyscraperComponent </text>
</g>
<!-- AdsModule&#45;&gt;AdsSkyscraperComponent  -->
<g id="edge6" class="edge">
<title>AdsModule&#45;&gt;AdsSkyscraperComponent </title>
<path fill="none" stroke="black" stroke-dasharray="5,2" d="M252.37,-149.91C252.37,-149.91 252.37,-168.79 252.37,-168.79"/>
<polygon fill="black" stroke="black" points="248.87,-168.79 252.37,-178.79 255.87,-168.79 248.87,-168.79"/>
</g>
<!-- MaterialModule -->
<g id="node4" class="node">
<title>MaterialModule</title>
<polygon fill="#8dd3c7" stroke="black" points="247.47,-84.8 244.47,-88.8 223.47,-88.8 220.47,-84.8 140.53,-84.8 140.53,-48.8 247.47,-48.8 247.47,-84.8"/>
<text text-anchor="middle" x="194" y="-62.6" font-family="Times,serif" font-size="14.00">MaterialModule</text>
</g>
<!-- MaterialModule&#45;&gt;AdsModule -->
<g id="edge3" class="edge">
<title>MaterialModule&#45;&gt;AdsModule</title>
<path fill="none" stroke="black" d="M238.72,-84.91C238.72,-84.91 238.72,-103.79 238.72,-103.79"/>
<polygon fill="black" stroke="black" points="235.22,-103.79 238.72,-113.79 242.22,-103.79 235.22,-103.79"/>
</g>
<!-- SharedModule -->
<g id="node5" class="node">
<title>SharedModule</title>
<polygon fill="#8dd3c7" stroke="black" points="122.43,-84.8 119.43,-88.8 98.43,-88.8 95.43,-84.8 23.57,-84.8 23.57,-48.8 122.43,-48.8 122.43,-84.8"/>
<text text-anchor="middle" x="73" y="-62.6" font-family="Times,serif" font-size="14.00">SharedModule</text>
</g>
<!-- SharedModule&#45;&gt;AdsModule -->
<g id="edge4" class="edge">
<title>SharedModule&#45;&gt;AdsModule</title>
<path fill="none" stroke="black" d="M113.71,-84.91C113.71,-104.14 113.71,-131.8 113.71,-131.8 113.71,-131.8 219.67,-131.8 219.67,-131.8"/>
<polygon fill="black" stroke="black" points="219.67,-135.3 229.67,-131.8 219.67,-128.3 219.67,-135.3"/>
</g>
</g>
</svg>
