<?xml version="1.0" encoding="UTF-8" standalone="no"?>
<!DOCTYPE svg PUBLIC "-//W3C//DTD SVG 1.1//EN"
 "http://www.w3.org/Graphics/SVG/1.1/DTD/svg11.dtd">
<!-- Generated by graphviz version 5.0.0 (20220707.1540)
 -->
<!-- Title: dependencies Pages: 1 -->
<svg width="1155pt" height="247pt"
 viewBox="0.00 0.00 1155.00 246.80" xmlns="http://www.w3.org/2000/svg" xmlns:xlink="http://www.w3.org/1999/xlink">
<g id="graph0" class="graph" transform="scale(1 1) rotate(0) translate(4 242.8)">
<title>dependencies</title>
<polygon fill="white" stroke="transparent" points="-4,4 -4,-242.8 1151,-242.8 1151,4 -4,4"/>
<text text-anchor="middle" x="573.5" y="-8.2" font-family="sans-serif" font-size="14.00">dependencies</text>
<g id="clust1" class="cluster">
<title>cluster_SharedModule</title>
<polygon fill="none" stroke="black" stroke-dasharray="1,5" points="8,-32.8 8,-230.8 1139,-230.8 1139,-32.8 8,-32.8"/>
</g>
<g id="clust9" class="cluster">
<title>cluster_SharedModule_imports</title>
<polygon fill="none" stroke="black" points="1009,-40.8 1009,-92.8 1131,-92.8 1131,-40.8 1009,-40.8"/>
</g>
<g id="clust2" class="cluster">
<title>cluster_SharedModule_declarations</title>
<polygon fill="none" stroke="black" points="16,-40.8 16,-92.8 1001,-92.8 1001,-40.8 16,-40.8"/>
</g>
<g id="clust10" class="cluster">
<title>cluster_SharedModule_exports</title>
<polygon fill="none" stroke="black" points="71,-170.8 71,-222.8 1077,-222.8 1077,-170.8 71,-170.8"/>
</g>
<!-- ActionButtonsComponent -->
<g id="node1" class="node">
<title>ActionButtonsComponent</title>
<polygon fill="#ffffb3" stroke="black" points="992.5,-84.8 829.5,-84.8 829.5,-48.8 992.5,-48.8 992.5,-84.8"/>
<text text-anchor="middle" x="911" y="-62.6" font-family="Times,serif" font-size="14.00">ActionButtonsComponent</text>
</g>
<!-- SharedModule -->
<g id="node7" class="node">
<title>SharedModule</title>
<polygon fill="#8dd3c7" stroke="black" points="611.43,-149.8 608.43,-153.8 587.43,-153.8 584.43,-149.8 512.57,-149.8 512.57,-113.8 611.43,-113.8 611.43,-149.8"/>
<text text-anchor="middle" x="562" y="-127.6" font-family="Times,serif" font-size="14.00">SharedModule</text>
</g>
<!-- ActionButtonsComponent&#45;&gt;SharedModule -->
<g id="edge1" class="edge">
<title>ActionButtonsComponent&#45;&gt;SharedModule</title>
<path fill="none" stroke="black" d="M857.12,-84.82C857.12,-102.17 857.12,-125.8 857.12,-125.8 857.12,-125.8 621.4,-125.8 621.4,-125.8"/>
<polygon fill="black" stroke="black" points="621.4,-122.3 611.4,-125.8 621.4,-129.3 621.4,-122.3"/>
</g>
<!-- LangSelectorComponent -->
<g id="node2" class="node">
<title>LangSelectorComponent</title>
<polygon fill="#ffffb3" stroke="black" points="811.97,-84.8 656.03,-84.8 656.03,-48.8 811.97,-48.8 811.97,-84.8"/>
<text text-anchor="middle" x="734" y="-62.6" font-family="Times,serif" font-size="14.00">LangSelectorComponent</text>
</g>
<!-- LangSelectorComponent&#45;&gt;SharedModule -->
<g id="edge2" class="edge">
<title>LangSelectorComponent&#45;&gt;SharedModule</title>
<path fill="none" stroke="black" d="M681.41,-85.04C681.41,-100.37 681.41,-119.8 681.41,-119.8 681.41,-119.8 621.26,-119.8 621.26,-119.8"/>
<polygon fill="black" stroke="black" points="621.26,-116.3 611.26,-119.8 621.26,-123.3 621.26,-116.3"/>
</g>
<!-- MenuButtonComponent -->
<g id="node3" class="node">
<title>MenuButtonComponent</title>
<polygon fill="#ffffb3" stroke="black" points="638.11,-84.8 485.89,-84.8 485.89,-48.8 638.11,-48.8 638.11,-84.8"/>
<text text-anchor="middle" x="562" y="-62.6" font-family="Times,serif" font-size="14.00">MenuButtonComponent</text>
</g>
<!-- MenuButtonComponent&#45;&gt;SharedModule -->
<g id="edge3" class="edge">
<title>MenuButtonComponent&#45;&gt;SharedModule</title>
<path fill="none" stroke="black" d="M562,-84.91C562,-84.91 562,-103.79 562,-103.79"/>
<polygon fill="black" stroke="black" points="558.5,-103.79 562,-113.79 565.5,-103.79 558.5,-103.79"/>
</g>
<!-- NavTabsComponent -->
<g id="node4" class="node">
<title>NavTabsComponent</title>
<polygon fill="#ffffb3" stroke="black" points="467.87,-84.8 336.13,-84.8 336.13,-48.8 467.87,-48.8 467.87,-84.8"/>
<text text-anchor="middle" x="402" y="-62.6" font-family="Times,serif" font-size="14.00">NavTabsComponent</text>
</g>
<!-- NavTabsComponent&#45;&gt;SharedModule -->
<g id="edge4" class="edge">
<title>NavTabsComponent&#45;&gt;SharedModule</title>
<path fill="none" stroke="black" d="M433.12,-85.04C433.12,-100.37 433.12,-119.8 433.12,-119.8 433.12,-119.8 502.54,-119.8 502.54,-119.8"/>
<polygon fill="black" stroke="black" points="502.54,-123.3 512.54,-119.8 502.54,-116.3 502.54,-123.3"/>
</g>
<!-- PostInfoCardComponent -->
<g id="node5" class="node">
<title>PostInfoCardComponent</title>
<polygon fill="#ffffb3" stroke="black" points="317.99,-84.8 162.01,-84.8 162.01,-48.8 317.99,-48.8 317.99,-84.8"/>
<text text-anchor="middle" x="240" y="-62.6" font-family="Times,serif" font-size="14.00">PostInfoCardComponent</text>
</g>
<!-- PostInfoCardComponent&#45;&gt;SharedModule -->
<g id="edge5" class="edge">
<title>PostInfoCardComponent&#45;&gt;SharedModule</title>
<path fill="none" stroke="black" d="M269.62,-84.82C269.62,-102.17 269.62,-125.8 269.62,-125.8 269.62,-125.8 502.73,-125.8 502.73,-125.8"/>
<polygon fill="black" stroke="black" points="502.73,-129.3 512.73,-125.8 502.73,-122.3 502.73,-129.3"/>
</g>
<!-- SwitchComponent -->
<g id="node6" class="node">
<title>SwitchComponent</title>
<polygon fill="#ffffb3" stroke="black" points="144.22,-84.8 23.78,-84.8 23.78,-48.8 144.22,-48.8 144.22,-84.8"/>
<text text-anchor="middle" x="84" y="-62.6" font-family="Times,serif" font-size="14.00">SwitchComponent</text>
</g>
<!-- SwitchComponent&#45;&gt;SharedModule -->
<g id="edge6" class="edge">
<title>SwitchComponent&#45;&gt;SharedModule</title>
<path fill="none" stroke="black" d="M111.62,-84.91C111.62,-104.14 111.62,-131.8 111.62,-131.8 111.62,-131.8 502.51,-131.8 502.51,-131.8"/>
<polygon fill="black" stroke="black" points="502.51,-135.3 512.51,-131.8 502.51,-128.3 502.51,-135.3"/>
</g>
<!-- ActionButtonsComponent  -->
<g id="node9" class="node">
<title>ActionButtonsComponent </title>
<polygon fill="#fb8072" stroke="black" points="1069,-214.8 903,-214.8 903,-178.8 1069,-178.8 1069,-214.8"/>
<text text-anchor="middle" x="986" y="-192.6" font-family="Times,serif" font-size="14.00">ActionButtonsComponent </text>
</g>
<!-- SharedModule&#45;&gt;ActionButtonsComponent  -->
<g id="edge8" class="edge">
<title>SharedModule&#45;&gt;ActionButtonsComponent </title>
<path fill="none" stroke="black" stroke-dasharray="5,2" d="M611.23,-137.8C715.19,-137.8 947.62,-137.8 947.62,-137.8 947.62,-137.8 947.62,-168.78 947.62,-168.78"/>
<polygon fill="black" stroke="black" points="944.13,-168.78 947.62,-178.78 951.13,-168.78 944.13,-168.78"/>
</g>
<!-- LangSelectorComponent  -->
<g id="node10" class="node">
<title>LangSelectorComponent </title>
<polygon fill="#fb8072" stroke="black" points="884.97,-214.8 725.03,-214.8 725.03,-178.8 884.97,-178.8 884.97,-214.8"/>
<text text-anchor="middle" x="805" y="-192.6" font-family="Times,serif" font-size="14.00">LangSelectorComponent </text>
</g>
<!-- SharedModule&#45;&gt;LangSelectorComponent  -->
<g id="edge9" class="edge">
<title>SharedModule&#45;&gt;LangSelectorComponent </title>
<path fill="none" stroke="black" stroke-dasharray="5,2" d="M611.23,-143.8C672.34,-143.8 768.62,-143.8 768.62,-143.8 768.62,-143.8 768.62,-168.56 768.62,-168.56"/>
<polygon fill="black" stroke="black" points="765.13,-168.56 768.62,-178.56 772.13,-168.56 765.13,-168.56"/>
</g>
<!-- MenuButtonComponent  -->
<g id="node11" class="node">
<title>MenuButtonComponent </title>
<polygon fill="#fb8072" stroke="black" points="706.61,-214.8 551.39,-214.8 551.39,-178.8 706.61,-178.8 706.61,-214.8"/>
<text text-anchor="middle" x="629" y="-192.6" font-family="Times,serif" font-size="14.00">MenuButtonComponent </text>
</g>
<!-- SharedModule&#45;&gt;MenuButtonComponent  -->
<g id="edge10" class="edge">
<title>SharedModule&#45;&gt;MenuButtonComponent </title>
<path fill="none" stroke="black" stroke-dasharray="5,2" d="M581.2,-149.91C581.2,-149.91 581.2,-168.79 581.2,-168.79"/>
<polygon fill="black" stroke="black" points="577.7,-168.79 581.2,-178.79 584.7,-168.79 577.7,-168.79"/>
</g>
<!-- NavTabsComponent  -->
<g id="node12" class="node">
<title>NavTabsComponent </title>
<polygon fill="#fb8072" stroke="black" points="533.87,-214.8 398.13,-214.8 398.13,-178.8 533.87,-178.8 533.87,-214.8"/>
<text text-anchor="middle" x="466" y="-192.6" font-family="Times,serif" font-size="14.00">NavTabsComponent </text>
</g>
<!-- SharedModule&#45;&gt;NavTabsComponent  -->
<g id="edge11" class="edge">
<title>SharedModule&#45;&gt;NavTabsComponent </title>
<path fill="none" stroke="black" stroke-dasharray="5,2" d="M523.24,-149.91C523.24,-149.91 523.24,-168.79 523.24,-168.79"/>
<polygon fill="black" stroke="black" points="519.74,-168.79 523.24,-178.79 526.74,-168.79 519.74,-168.79"/>
</g>
<!-- PostInfoCardComponent  -->
<g id="node13" class="node">
<title>PostInfoCardComponent </title>
<polygon fill="#fb8072" stroke="black" points="380.99,-214.8 221.01,-214.8 221.01,-178.8 380.99,-178.8 380.99,-214.8"/>
<text text-anchor="middle" x="301" y="-192.6" font-family="Times,serif" font-size="14.00">PostInfoCardComponent </text>
</g>
<!-- SharedModule&#45;&gt;PostInfoCardComponent  -->
<g id="edge12" class="edge">
<title>SharedModule&#45;&gt;PostInfoCardComponent </title>
<path fill="none" stroke="black" stroke-dasharray="5,2" d="M512.72,-143.8C452.46,-143.8 358.41,-143.8 358.41,-143.8 358.41,-143.8 358.41,-168.56 358.41,-168.56"/>
<polygon fill="black" stroke="black" points="354.91,-168.56 358.41,-178.56 361.91,-168.56 354.91,-168.56"/>
</g>
<!-- SwitchComponent  -->
<g id="node14" class="node">
<title>SwitchComponent </title>
<polygon fill="#fb8072" stroke="black" points="202.72,-214.8 79.28,-214.8 79.28,-178.8 202.72,-178.8 202.72,-214.8"/>
<text text-anchor="middle" x="141" y="-192.6" font-family="Times,serif" font-size="14.00">SwitchComponent </text>
</g>
<!-- SharedModule&#45;&gt;SwitchComponent  -->
<g id="edge13" class="edge">
<title>SharedModule&#45;&gt;SwitchComponent </title>
<path fill="none" stroke="black" stroke-dasharray="5,2" d="M512.77,-137.8C410.07,-137.8 182.43,-137.8 182.43,-137.8 182.43,-137.8 182.43,-168.78 182.43,-168.78"/>
<polygon fill="black" stroke="black" points="178.93,-168.78 182.43,-178.78 185.93,-168.78 178.93,-168.78"/>
</g>
<!-- MaterialModule -->
<g id="node8" class="node">
<title>MaterialModule</title>
<polygon fill="#8dd3c7" stroke="black" points="1123.47,-84.8 1120.47,-88.8 1099.47,-88.8 1096.47,-84.8 1016.53,-84.8 1016.53,-48.8 1123.47,-48.8 1123.47,-84.8"/>
<text text-anchor="middle" x="1070" y="-62.6" font-family="Times,serif" font-size="14.00">MaterialModule</text>
</g>
<!-- MaterialModule&#45;&gt;SharedModule -->
<g id="edge7" class="edge">
<title>MaterialModule&#45;&gt;SharedModule</title>
<path fill="none" stroke="black" d="M1042.88,-84.91C1042.88,-104.14 1042.88,-131.8 1042.88,-131.8 1042.88,-131.8 621.65,-131.8 621.65,-131.8"/>
<polygon fill="black" stroke="black" points="621.65,-128.3 611.65,-131.8 621.65,-135.3 621.65,-128.3"/>
</g>
</g>
</svg>
