<?xml version="1.0" encoding="UTF-8" standalone="no"?>
<!DOCTYPE svg PUBLIC "-//W3C//DTD SVG 1.1//EN"
 "http://www.w3.org/Graphics/SVG/1.1/DTD/svg11.dtd">
<!-- Generated by graphviz version 5.0.0 (20220707.1540)
 -->
<!-- Title: dependencies Pages: 1 -->
<svg width="855pt" height="174pt"
 viewBox="0.00 0.00 855.00 173.80" xmlns="http://www.w3.org/2000/svg" xmlns:xlink="http://www.w3.org/1999/xlink">
<g id="graph0" class="graph" transform="scale(1 1) rotate(0) translate(4 169.8)">
<title>dependencies</title>
<polygon fill="white" stroke="transparent" points="-4,4 -4,-169.8 851,-169.8 851,4 -4,4"/>
<text text-anchor="middle" x="423.5" y="-8.2" font-family="sans-serif" font-size="14.00">dependencies</text>
<g id="clust1" class="cluster">
<title>cluster_AdminModule</title>
<polygon fill="none" stroke="black" stroke-dasharray="1,5" points="8,-32.8 8,-157.8 839,-157.8 839,-32.8 8,-32.8"/>
</g>
<g id="clust2" class="cluster">
<title>cluster_AdminModule_declarations</title>
<polygon fill="none" stroke="black" points="425,-40.8 425,-92.8 831,-92.8 831,-40.8 425,-40.8"/>
</g>
<g id="clust6" class="cluster">
<title>cluster_AdminModule_imports</title>
<polygon fill="none" stroke="black" points="16,-40.8 16,-92.8 417,-92.8 417,-40.8 16,-40.8"/>
</g>
<!-- DashboardPage -->
<g id="node1" class="node">
<title>DashboardPage</title>
<polygon fill="#ffffb3" stroke="black" points="822.86,-84.8 719.14,-84.8 719.14,-48.8 822.86,-48.8 822.86,-84.8"/>
<text text-anchor="middle" x="771" y="-62.6" font-family="Times,serif" font-size="14.00">DashboardPage</text>
</g>
<!-- AdminModule -->
<g id="node4" class="node">
<title>AdminModule</title>
<polygon fill="#8dd3c7" stroke="black" points="474.44,-149.8 471.44,-153.8 450.44,-153.8 447.44,-149.8 375.56,-149.8 375.56,-113.8 474.44,-113.8 474.44,-149.8"/>
<text text-anchor="middle" x="425" y="-127.6" font-family="Times,serif" font-size="14.00">AdminModule</text>
</g>
<!-- DashboardPage&#45;&gt;AdminModule -->
<g id="edge1" class="edge">
<title>DashboardPage&#45;&gt;AdminModule</title>
<path fill="none" stroke="black" d="M771,-85.08C771,-106.12 771,-137.8 771,-137.8 771,-137.8 484.57,-137.8 484.57,-137.8"/>
<polygon fill="black" stroke="black" points="484.57,-134.3 474.57,-137.8 484.57,-141.3 484.57,-134.3"/>
</g>
<!-- EditPostPage -->
<g id="node2" class="node">
<title>EditPostPage</title>
<polygon fill="#ffffb3" stroke="black" points="701.17,-84.8 610.83,-84.8 610.83,-48.8 701.17,-48.8 701.17,-84.8"/>
<text text-anchor="middle" x="656" y="-62.6" font-family="Times,serif" font-size="14.00">EditPostPage</text>
</g>
<!-- EditPostPage&#45;&gt;AdminModule -->
<g id="edge2" class="edge">
<title>EditPostPage&#45;&gt;AdminModule</title>
<path fill="none" stroke="black" d="M656,-84.82C656,-102.17 656,-125.8 656,-125.8 656,-125.8 484.27,-125.8 484.27,-125.8"/>
<polygon fill="black" stroke="black" points="484.27,-122.3 474.27,-125.8 484.27,-129.3 484.27,-122.3"/>
</g>
<!-- EmbedGithubComponent -->
<g id="node3" class="node">
<title>EmbedGithubComponent</title>
<polygon fill="#ffffb3" stroke="black" points="592.88,-84.8 433.12,-84.8 433.12,-48.8 592.88,-48.8 592.88,-84.8"/>
<text text-anchor="middle" x="513" y="-62.6" font-family="Times,serif" font-size="14.00">EmbedGithubComponent</text>
</g>
<!-- EmbedGithubComponent&#45;&gt;AdminModule -->
<g id="edge3" class="edge">
<title>EmbedGithubComponent&#45;&gt;AdminModule</title>
<path fill="none" stroke="black" d="M453.64,-84.91C453.64,-84.91 453.64,-103.79 453.64,-103.79"/>
<polygon fill="black" stroke="black" points="450.14,-103.79 453.64,-113.79 457.14,-103.79 450.14,-103.79"/>
</g>
<!-- AdminRoutingModule -->
<g id="node5" class="node">
<title>AdminRoutingModule</title>
<polygon fill="#8dd3c7" stroke="black" points="408.56,-84.8 405.56,-88.8 384.56,-88.8 381.56,-84.8 265.44,-84.8 265.44,-48.8 408.56,-48.8 408.56,-84.8"/>
<text text-anchor="middle" x="337" y="-62.6" font-family="Times,serif" font-size="14.00">AdminRoutingModule</text>
</g>
<!-- AdminRoutingModule&#45;&gt;AdminModule -->
<g id="edge4" class="edge">
<title>AdminRoutingModule&#45;&gt;AdminModule</title>
<path fill="none" stroke="black" d="M392.28,-84.91C392.28,-84.91 392.28,-103.79 392.28,-103.79"/>
<polygon fill="black" stroke="black" points="388.78,-103.79 392.28,-113.79 395.78,-103.79 388.78,-103.79"/>
</g>
<!-- MaterialModule -->
<g id="node6" class="node">
<title>MaterialModule</title>
<polygon fill="#8dd3c7" stroke="black" points="247.47,-84.8 244.47,-88.8 223.47,-88.8 220.47,-84.8 140.53,-84.8 140.53,-48.8 247.47,-48.8 247.47,-84.8"/>
<text text-anchor="middle" x="194" y="-62.6" font-family="Times,serif" font-size="14.00">MaterialModule</text>
</g>
<!-- MaterialModule&#45;&gt;AdminModule -->
<g id="edge5" class="edge">
<title>MaterialModule&#45;&gt;AdminModule</title>
<path fill="none" stroke="black" d="M194,-84.82C194,-102.17 194,-125.8 194,-125.8 194,-125.8 365.73,-125.8 365.73,-125.8"/>
<polygon fill="black" stroke="black" points="365.73,-129.3 375.73,-125.8 365.73,-122.3 365.73,-129.3"/>
</g>
<!-- SharedModule -->
<g id="node7" class="node">
<title>SharedModule</title>
<polygon fill="#8dd3c7" stroke="black" points="122.43,-84.8 119.43,-88.8 98.43,-88.8 95.43,-84.8 23.57,-84.8 23.57,-48.8 122.43,-48.8 122.43,-84.8"/>
<text text-anchor="middle" x="73" y="-62.6" font-family="Times,serif" font-size="14.00">SharedModule</text>
</g>
<!-- SharedModule&#45;&gt;AdminModule -->
<g id="edge6" class="edge">
<title>SharedModule&#45;&gt;AdminModule</title>
<path fill="none" stroke="black" d="M73,-85.08C73,-106.12 73,-137.8 73,-137.8 73,-137.8 365.69,-137.8 365.69,-137.8"/>
<polygon fill="black" stroke="black" points="365.69,-141.3 375.69,-137.8 365.69,-134.3 365.69,-141.3"/>
</g>
</g>
</svg>
