<?xml version="1.0" encoding="UTF-8" standalone="no"?>
<!DOCTYPE svg PUBLIC "-//W3C//DTD SVG 1.1//EN"
 "http://www.w3.org/Graphics/SVG/1.1/DTD/svg11.dtd">
<!-- Generated by graphviz version 5.0.0 (20220707.1540)
 -->
<!-- Title: dependencies Pages: 1 -->
<svg width="1903pt" height="312pt"
 viewBox="0.00 0.00 1903.00 311.80" xmlns="http://www.w3.org/2000/svg" xmlns:xlink="http://www.w3.org/1999/xlink">
<g id="graph0" class="graph" transform="scale(1 1) rotate(0) translate(4 307.8)">
<title>dependencies</title>
<polygon fill="white" stroke="transparent" points="-4,4 -4,-307.8 1899,-307.8 1899,4 -4,4"/>
<text text-anchor="middle" x="947.5" y="-8.2" font-family="sans-serif" font-size="14.00">dependencies</text>
<g id="clust1" class="cluster">
<title>cluster_AppModule</title>
<polygon fill="none" stroke="black" stroke-dasharray="1,5" points="8,-32.8 8,-295.8 1887,-295.8 1887,-32.8 8,-32.8"/>
</g>
<g id="clust2" class="cluster">
<title>cluster_AppModule_declarations</title>
<polygon fill="none" stroke="black" points="1757,-105.8 1757,-157.8 1879,-157.8 1879,-105.8 1757,-105.8"/>
</g>
<g id="clust3" class="cluster">
<title>cluster_AppModule_AppComponent_providers</title>
<polygon fill="none" stroke="black" points="1223,-40.8 1223,-92.8 1879,-92.8 1879,-40.8 1223,-40.8"/>
</g>
<g id="clust4" class="cluster">
<title>cluster_AppModule_imports</title>
<polygon fill="none" stroke="black" points="16,-105.8 16,-157.8 1749,-157.8 1749,-105.8 16,-105.8"/>
</g>
<g id="clust6" class="cluster">
<title>cluster_AppModule_bootstrap</title>
<polygon fill="none" stroke="black" points="1136,-235.8 1136,-287.8 1260,-287.8 1260,-235.8 1136,-235.8"/>
</g>
<!-- AppComponent -->
<g id="node1" class="node">
<title>AppComponent</title>
<polygon fill="#ffffb3" stroke="black" points="1870.94,-149.8 1765.06,-149.8 1765.06,-113.8 1870.94,-113.8 1870.94,-149.8"/>
<text text-anchor="middle" x="1818" y="-127.6" font-family="Times,serif" font-size="14.00">AppComponent</text>
</g>
<!-- AppModule -->
<g id="node2" class="node">
<title>AppModule</title>
<polygon fill="#8dd3c7" stroke="black" points="1239.66,-214.8 1236.66,-218.8 1215.66,-218.8 1212.66,-214.8 1156.34,-214.8 1156.34,-178.8 1239.66,-178.8 1239.66,-214.8"/>
<text text-anchor="middle" x="1198" y="-192.6" font-family="Times,serif" font-size="14.00">AppModule</text>
</g>
<!-- AppComponent&#45;&gt;AppModule -->
<g id="edge1" class="edge">
<title>AppComponent&#45;&gt;AppModule</title>
<path fill="none" stroke="black" d="M1818,-150.05C1818,-172.82 1818,-208.8 1818,-208.8 1818,-208.8 1250.13,-208.8 1250.13,-208.8"/>
<polygon fill="black" stroke="black" points="1250.13,-205.3 1240.13,-208.8 1250.13,-212.3 1250.13,-205.3"/>
</g>
<!-- AppComponent  -->
<g id="node14" class="node">
<title>AppComponent </title>
<polygon fill="#80b1d3" stroke="black" points="1252.44,-279.8 1143.56,-279.8 1143.56,-243.8 1252.44,-243.8 1252.44,-279.8"/>
<text text-anchor="middle" x="1198" y="-257.6" font-family="Times,serif" font-size="14.00">AppComponent </text>
</g>
<!-- AppModule&#45;&gt;AppComponent  -->
<g id="edge13" class="edge">
<title>AppModule&#45;&gt;AppComponent </title>
<path fill="none" stroke="black" stroke-dasharray="1,5" d="M1198,-214.91C1198,-214.91 1198,-233.79 1198,-233.79"/>
<polygon fill="black" stroke="black" points="1194.5,-233.79 1198,-243.79 1201.5,-233.79 1194.5,-233.79"/>
</g>
<!-- { provide: MAT_RIPPLE_GLOBAL_OPTIONS, useValue: { disabled: true } } -->
<g id="node3" class="node">
<title>{ provide: MAT_RIPPLE_GLOBAL_OPTIONS, useValue: { disabled: true } }</title>
<ellipse fill="#fdb462" stroke="black" cx="1551" cy="-66.8" rx="320.12" ry="18"/>
<text text-anchor="middle" x="1551" y="-62.6" font-family="Times,serif" font-size="14.00">{ provide: MAT_RIPPLE_GLOBAL_OPTIONS, useValue: { disabled: true } }</text>
</g>
<!-- { provide: MAT_RIPPLE_GLOBAL_OPTIONS, useValue: { disabled: true } }&#45;&gt;AppComponent -->
<g id="edge2" class="edge">
<title>{ provide: MAT_RIPPLE_GLOBAL_OPTIONS, useValue: { disabled: true } }&#45;&gt;AppComponent</title>
<path fill="none" stroke="black" d="M1818,-76.96C1818,-76.96 1818,-103.61 1818,-103.61"/>
<polygon fill="black" stroke="black" points="1814.5,-103.61 1818,-113.61 1821.5,-103.61 1814.5,-103.61"/>
</g>
<!-- AppRoutingModule -->
<g id="node4" class="node">
<title>AppRoutingModule</title>
<polygon fill="#8dd3c7" stroke="black" points="1741.28,-149.8 1738.28,-153.8 1717.28,-153.8 1714.28,-149.8 1612.72,-149.8 1612.72,-113.8 1741.28,-113.8 1741.28,-149.8"/>
<text text-anchor="middle" x="1677" y="-127.6" font-family="Times,serif" font-size="14.00">AppRoutingModule</text>
</g>
<!-- AppRoutingModule&#45;&gt;AppModule -->
<g id="edge3" class="edge">
<title>AppRoutingModule&#45;&gt;AppModule</title>
<path fill="none" stroke="black" d="M1677,-150.08C1677,-171.12 1677,-202.8 1677,-202.8 1677,-202.8 1249.67,-202.8 1249.67,-202.8"/>
<polygon fill="black" stroke="black" points="1249.67,-199.3 1239.67,-202.8 1249.67,-206.3 1249.67,-199.3"/>
</g>
<!-- BlogModule -->
<g id="node5" class="node">
<title>BlogModule</title>
<polygon fill="#8dd3c7" stroke="black" points="1594.28,-149.8 1591.28,-153.8 1570.28,-153.8 1567.28,-149.8 1507.72,-149.8 1507.72,-113.8 1594.28,-113.8 1594.28,-149.8"/>
<text text-anchor="middle" x="1551" y="-127.6" font-family="Times,serif" font-size="14.00">BlogModule</text>
</g>
<!-- BlogModule&#45;&gt;AppModule -->
<g id="edge4" class="edge">
<title>BlogModule&#45;&gt;AppModule</title>
<path fill="none" stroke="black" d="M1551,-149.91C1551,-169.14 1551,-196.8 1551,-196.8 1551,-196.8 1249.88,-196.8 1249.88,-196.8"/>
<polygon fill="black" stroke="black" points="1249.88,-193.3 1239.88,-196.8 1249.88,-200.3 1249.88,-193.3"/>
</g>
<!-- LayoutModule -->
<g id="node6" class="node">
<title>LayoutModule</title>
<polygon fill="#8dd3c7" stroke="black" points="1489.71,-149.8 1486.71,-153.8 1465.71,-153.8 1462.71,-149.8 1390.29,-149.8 1390.29,-113.8 1489.71,-113.8 1489.71,-149.8"/>
<text text-anchor="middle" x="1440" y="-127.6" font-family="Times,serif" font-size="14.00">LayoutModule</text>
</g>
<!-- LayoutModule&#45;&gt;AppModule -->
<g id="edge5" class="edge">
<title>LayoutModule&#45;&gt;AppModule</title>
<path fill="none" stroke="black" d="M1440,-149.82C1440,-167.17 1440,-190.8 1440,-190.8 1440,-190.8 1249.88,-190.8 1249.88,-190.8"/>
<polygon fill="black" stroke="black" points="1249.88,-187.3 1239.88,-190.8 1249.88,-194.3 1249.88,-187.3"/>
</g>
<!-- MaterialModule -->
<g id="node7" class="node">
<title>MaterialModule</title>
<polygon fill="#8dd3c7" stroke="black" points="1372.47,-149.8 1369.47,-153.8 1348.47,-153.8 1345.47,-149.8 1265.53,-149.8 1265.53,-113.8 1372.47,-113.8 1372.47,-149.8"/>
<text text-anchor="middle" x="1319" y="-127.6" font-family="Times,serif" font-size="14.00">MaterialModule</text>
</g>
<!-- MaterialModule&#45;&gt;AppModule -->
<g id="edge6" class="edge">
<title>MaterialModule&#45;&gt;AppModule</title>
<path fill="none" stroke="black" d="M1319,-150.04C1319,-165.37 1319,-184.8 1319,-184.8 1319,-184.8 1249.98,-184.8 1249.98,-184.8"/>
<polygon fill="black" stroke="black" points="1249.98,-181.3 1239.98,-184.8 1249.98,-188.3 1249.98,-181.3"/>
</g>
<!-- SharedModule -->
<g id="node8" class="node">
<title>SharedModule</title>
<polygon fill="#8dd3c7" stroke="black" points="1247.43,-149.8 1244.43,-153.8 1223.43,-153.8 1220.43,-149.8 1148.57,-149.8 1148.57,-113.8 1247.43,-113.8 1247.43,-149.8"/>
<text text-anchor="middle" x="1198" y="-127.6" font-family="Times,serif" font-size="14.00">SharedModule</text>
</g>
<!-- SharedModule&#45;&gt;AppModule -->
<g id="edge7" class="edge">
<title>SharedModule&#45;&gt;AppModule</title>
<path fill="none" stroke="black" d="M1198,-149.91C1198,-149.91 1198,-168.79 1198,-168.79"/>
<polygon fill="black" stroke="black" points="1194.5,-168.79 1198,-178.79 1201.5,-168.79 1194.5,-168.79"/>
</g>
<!-- V2Module -->
<g id="node9" class="node">
<title>V2Module</title>
<polygon fill="#8dd3c7" stroke="black" points="1130.16,-149.8 1127.16,-153.8 1106.16,-153.8 1103.16,-149.8 1053.84,-149.8 1053.84,-113.8 1130.16,-113.8 1130.16,-149.8"/>
<text text-anchor="middle" x="1092" y="-127.6" font-family="Times,serif" font-size="14.00">V2Module</text>
</g>
<!-- V2Module&#45;&gt;AppModule -->
<g id="edge8" class="edge">
<title>V2Module&#45;&gt;AppModule</title>
<path fill="none" stroke="black" d="M1092,-150.04C1092,-165.37 1092,-184.8 1092,-184.8 1092,-184.8 1146.11,-184.8 1146.11,-184.8"/>
<polygon fill="black" stroke="black" points="1146.11,-188.3 1156.11,-184.8 1146.11,-181.3 1146.11,-188.3"/>
</g>
<!-- provideAnalytics(() =&gt; getAnalytics()) -->
<g id="node10" class="node">
<title>provideAnalytics(() =&gt; getAnalytics())</title>
<polygon fill="#8dd3c7" stroke="black" points="1035.94,-149.8 1032.94,-153.8 1011.94,-153.8 1008.94,-149.8 802.06,-149.8 802.06,-113.8 1035.94,-113.8 1035.94,-149.8"/>
<text text-anchor="middle" x="919" y="-127.6" font-family="Times,serif" font-size="14.00">provideAnalytics(() =&gt; getAnalytics())</text>
</g>
<!-- provideAnalytics(() =&gt; getAnalytics())&#45;&gt;AppModule -->
<g id="edge9" class="edge">
<title>provideAnalytics(() =&gt; getAnalytics())&#45;&gt;AppModule</title>
<path fill="none" stroke="black" d="M919,-149.82C919,-167.17 919,-190.8 919,-190.8 919,-190.8 1146.23,-190.8 1146.23,-190.8"/>
<polygon fill="black" stroke="black" points="1146.23,-194.3 1156.23,-190.8 1146.23,-187.3 1146.23,-194.3"/>
</g>
<!-- provideAuth(() =&gt; getAuth()) -->
<g id="node11" class="node">
<title>provideAuth(() =&gt; getAuth())</title>
<polygon fill="#8dd3c7" stroke="black" points="784.13,-149.8 781.13,-153.8 760.13,-153.8 757.13,-149.8 601.87,-149.8 601.87,-113.8 784.13,-113.8 784.13,-149.8"/>
<text text-anchor="middle" x="693" y="-127.6" font-family="Times,serif" font-size="14.00">provideAuth(() =&gt; getAuth())</text>
</g>
<!-- provideAuth(() =&gt; getAuth())&#45;&gt;AppModule -->
<g id="edge10" class="edge">
<title>provideAuth(() =&gt; getAuth())&#45;&gt;AppModule</title>
<path fill="none" stroke="black" d="M693,-149.91C693,-169.14 693,-196.8 693,-196.8 693,-196.8 1146.24,-196.8 1146.24,-196.8"/>
<polygon fill="black" stroke="black" points="1146.24,-200.3 1156.24,-196.8 1146.24,-193.3 1146.24,-200.3"/>
</g>
<!-- provideFirebaseApp(() =&gt; initializeApp(environment -->
<g id="node12" class="node">
<title>provideFirebaseApp(() =&gt; initializeApp(environment</title>
<polygon fill="#8dd3c7" stroke="black" points="583.59,-149.8 580.59,-153.8 559.59,-153.8 556.59,-149.8 268.41,-149.8 268.41,-113.8 583.59,-113.8 583.59,-149.8"/>
<text text-anchor="middle" x="426" y="-127.6" font-family="Times,serif" font-size="14.00">provideFirebaseApp(() =&gt; initializeApp(environment</text>
</g>
<!-- provideFirebaseApp(() =&gt; initializeApp(environment&#45;&gt;AppModule -->
<g id="edge11" class="edge">
<title>provideFirebaseApp(() =&gt; initializeApp(environment&#45;&gt;AppModule</title>
<path fill="none" stroke="black" d="M426,-150.08C426,-171.12 426,-202.8 426,-202.8 426,-202.8 1146.22,-202.8 1146.22,-202.8"/>
<polygon fill="black" stroke="black" points="1146.22,-206.3 1156.22,-202.8 1146.22,-199.3 1146.22,-206.3"/>
</g>
<!-- provideFirestore(() =&gt; getFirestore()) -->
<g id="node13" class="node">
<title>provideFirestore(() =&gt; getFirestore())</title>
<polygon fill="#8dd3c7" stroke="black" points="250.16,-149.8 247.16,-153.8 226.16,-153.8 223.16,-149.8 23.84,-149.8 23.84,-113.8 250.16,-113.8 250.16,-149.8"/>
<text text-anchor="middle" x="137" y="-127.6" font-family="Times,serif" font-size="14.00">provideFirestore(() =&gt; getFirestore())</text>
</g>
<!-- provideFirestore(() =&gt; getFirestore())&#45;&gt;AppModule -->
<g id="edge12" class="edge">
<title>provideFirestore(() =&gt; getFirestore())&#45;&gt;AppModule</title>
<path fill="none" stroke="black" d="M137,-150.05C137,-172.82 137,-208.8 137,-208.8 137,-208.8 1146.08,-208.8 1146.08,-208.8"/>
<polygon fill="black" stroke="black" points="1146.08,-212.3 1156.08,-208.8 1146.08,-205.3 1146.08,-212.3"/>
</g>
</g>
</svg>
