<?xml version="1.0" encoding="UTF-8" standalone="no"?>
<!DOCTYPE svg PUBLIC "-//W3C//DTD SVG 1.1//EN"
 "http://www.w3.org/Graphics/SVG/1.1/DTD/svg11.dtd">
<!-- Generated by graphviz version 5.0.0 (20220707.1540)
 -->
<!-- Title: dependencies Pages: 1 -->
<svg width="1015pt" height="247pt"
 viewBox="0.00 0.00 1015.00 246.80" xmlns="http://www.w3.org/2000/svg" xmlns:xlink="http://www.w3.org/1999/xlink">
<g id="graph0" class="graph" transform="scale(1 1) rotate(0) translate(4 242.8)">
<title>dependencies</title>
<polygon fill="white" stroke="transparent" points="-4,4 -4,-242.8 1011,-242.8 1011,4 -4,4"/>
<text text-anchor="middle" x="503.5" y="-8.2" font-family="sans-serif" font-size="14.00">dependencies</text>
<g id="clust1" class="cluster">
<title>cluster_LayoutModule</title>
<polygon fill="none" stroke="black" stroke-dasharray="1,5" points="8,-32.8 8,-230.8 999,-230.8 999,-32.8 8,-32.8"/>
</g>
<g id="clust2" class="cluster">
<title>cluster_LayoutModule_declarations</title>
<polygon fill="none" stroke="black" points="369,-40.8 369,-92.8 991,-92.8 991,-40.8 369,-40.8"/>
</g>
<g id="clust8" class="cluster">
<title>cluster_LayoutModule_exports</title>
<polygon fill="none" stroke="black" points="117,-170.8 117,-222.8 753,-222.8 753,-170.8 117,-170.8"/>
</g>
<g id="clust7" class="cluster">
<title>cluster_LayoutModule_imports</title>
<polygon fill="none" stroke="black" points="16,-40.8 16,-92.8 361,-92.8 361,-40.8 16,-40.8"/>
</g>
<!-- FooterComponent -->
<g id="node1" class="node">
<title>FooterComponent</title>
<polygon fill="#ffffb3" stroke="black" points="982.88,-84.8 865.12,-84.8 865.12,-48.8 982.88,-48.8 982.88,-84.8"/>
<text text-anchor="middle" x="924" y="-62.6" font-family="Times,serif" font-size="14.00">FooterComponent</text>
</g>
<!-- LayoutModule -->
<g id="node5" class="node">
<title>LayoutModule</title>
<polygon fill="#8dd3c7" stroke="black" points="519.71,-149.8 516.71,-153.8 495.71,-153.8 492.71,-149.8 420.29,-149.8 420.29,-113.8 519.71,-113.8 519.71,-149.8"/>
<text text-anchor="middle" x="470" y="-127.6" font-family="Times,serif" font-size="14.00">LayoutModule</text>
</g>
<!-- FooterComponent&#45;&gt;LayoutModule -->
<g id="edge1" class="edge">
<title>FooterComponent&#45;&gt;LayoutModule</title>
<path fill="none" stroke="black" d="M924,-84.93C924,-105.37 924,-135.8 924,-135.8 924,-135.8 529.88,-135.8 529.88,-135.8"/>
<polygon fill="black" stroke="black" points="529.88,-132.3 519.88,-135.8 529.88,-139.3 529.88,-132.3"/>
</g>
<!-- HeaderComponent -->
<g id="node2" class="node">
<title>HeaderComponent</title>
<polygon fill="#ffffb3" stroke="black" points="846.75,-84.8 725.25,-84.8 725.25,-48.8 846.75,-48.8 846.75,-84.8"/>
<text text-anchor="middle" x="786" y="-62.6" font-family="Times,serif" font-size="14.00">HeaderComponent</text>
</g>
<!-- HeaderComponent&#45;&gt;LayoutModule -->
<g id="edge2" class="edge">
<title>HeaderComponent&#45;&gt;LayoutModule</title>
<path fill="none" stroke="black" d="M734.91,-85.07C734.91,-103.36 734.91,-128.8 734.91,-128.8 734.91,-128.8 529.83,-128.8 529.83,-128.8"/>
<polygon fill="black" stroke="black" points="529.83,-125.3 519.83,-128.8 529.83,-132.3 529.83,-125.3"/>
</g>
<!-- SidenavComponent -->
<g id="node3" class="node">
<title>SidenavComponent</title>
<polygon fill="#ffffb3" stroke="black" points="707.44,-84.8 580.56,-84.8 580.56,-48.8 707.44,-48.8 707.44,-84.8"/>
<text text-anchor="middle" x="644" y="-62.6" font-family="Times,serif" font-size="14.00">SidenavComponent</text>
</g>
<!-- SidenavComponent&#45;&gt;LayoutModule -->
<g id="edge3" class="edge">
<title>SidenavComponent&#45;&gt;LayoutModule</title>
<path fill="none" stroke="black" d="M593.2,-84.81C593.2,-100.85 593.2,-121.8 593.2,-121.8 593.2,-121.8 529.76,-121.8 529.76,-121.8"/>
<polygon fill="black" stroke="black" points="529.76,-118.3 519.76,-121.8 529.76,-125.3 529.76,-118.3"/>
</g>
<!-- SidenavSecondaryComponent -->
<g id="node4" class="node">
<title>SidenavSecondaryComponent</title>
<polygon fill="#ffffb3" stroke="black" points="562.53,-84.8 377.47,-84.8 377.47,-48.8 562.53,-48.8 562.53,-84.8"/>
<text text-anchor="middle" x="470" y="-62.6" font-family="Times,serif" font-size="14.00">SidenavSecondaryComponent</text>
</g>
<!-- SidenavSecondaryComponent&#45;&gt;LayoutModule -->
<g id="edge4" class="edge">
<title>SidenavSecondaryComponent&#45;&gt;LayoutModule</title>
<path fill="none" stroke="black" d="M470,-84.91C470,-84.91 470,-103.79 470,-103.79"/>
<polygon fill="black" stroke="black" points="466.5,-103.79 470,-113.79 473.5,-103.79 466.5,-103.79"/>
</g>
<!-- FooterComponent  -->
<g id="node9" class="node">
<title>FooterComponent </title>
<polygon fill="#fb8072" stroke="black" points="744.88,-214.8 623.12,-214.8 623.12,-178.8 744.88,-178.8 744.88,-214.8"/>
<text text-anchor="middle" x="684" y="-192.6" font-family="Times,serif" font-size="14.00">FooterComponent </text>
</g>
<!-- LayoutModule&#45;&gt;FooterComponent  -->
<g id="edge8" class="edge">
<title>LayoutModule&#45;&gt;FooterComponent </title>
<path fill="none" stroke="black" stroke-dasharray="5,2" d="M519.78,-142.8C577.63,-142.8 665.26,-142.8 665.26,-142.8 665.26,-142.8 665.26,-168.52 665.26,-168.52"/>
<polygon fill="black" stroke="black" points="661.76,-168.52 665.26,-178.52 668.76,-168.52 661.76,-168.52"/>
</g>
<!-- HeaderComponent  -->
<g id="node10" class="node">
<title>HeaderComponent </title>
<polygon fill="#fb8072" stroke="black" points="605.75,-214.8 480.25,-214.8 480.25,-178.8 605.75,-178.8 605.75,-214.8"/>
<text text-anchor="middle" x="543" y="-192.6" font-family="Times,serif" font-size="14.00">HeaderComponent </text>
</g>
<!-- LayoutModule&#45;&gt;HeaderComponent  -->
<g id="edge9" class="edge">
<title>LayoutModule&#45;&gt;HeaderComponent </title>
<path fill="none" stroke="black" stroke-dasharray="5,2" d="M499.99,-149.91C499.99,-149.91 499.99,-168.79 499.99,-168.79"/>
<polygon fill="black" stroke="black" points="496.49,-168.79 499.99,-178.79 503.49,-168.79 496.49,-168.79"/>
</g>
<!-- SidenavComponent  -->
<g id="node11" class="node">
<title>SidenavComponent </title>
<polygon fill="#fb8072" stroke="black" points="461.93,-214.8 332.07,-214.8 332.07,-178.8 461.93,-178.8 461.93,-214.8"/>
<text text-anchor="middle" x="397" y="-192.6" font-family="Times,serif" font-size="14.00">SidenavComponent </text>
</g>
<!-- LayoutModule&#45;&gt;SidenavComponent  -->
<g id="edge10" class="edge">
<title>LayoutModule&#45;&gt;SidenavComponent </title>
<path fill="none" stroke="black" stroke-dasharray="5,2" d="M441.18,-149.91C441.18,-149.91 441.18,-168.79 441.18,-168.79"/>
<polygon fill="black" stroke="black" points="437.68,-168.79 441.18,-178.79 444.68,-168.79 437.68,-168.79"/>
</g>
<!-- SidenavSecondaryComponent  -->
<g id="node12" class="node">
<title>SidenavSecondaryComponent </title>
<polygon fill="#fb8072" stroke="black" points="314.52,-214.8 125.48,-214.8 125.48,-178.8 314.52,-178.8 314.52,-214.8"/>
<text text-anchor="middle" x="220" y="-192.6" font-family="Times,serif" font-size="14.00">SidenavSecondaryComponent </text>
</g>
<!-- LayoutModule&#45;&gt;SidenavSecondaryComponent  -->
<g id="edge11" class="edge">
<title>LayoutModule&#45;&gt;SidenavSecondaryComponent </title>
<path fill="none" stroke="black" stroke-dasharray="5,2" d="M420.3,-142.8C366.98,-142.8 289.87,-142.8 289.87,-142.8 289.87,-142.8 289.87,-168.52 289.87,-168.52"/>
<polygon fill="black" stroke="black" points="286.37,-168.52 289.87,-178.52 293.37,-168.52 286.37,-168.52"/>
</g>
<!-- AuthModule -->
<g id="node6" class="node">
<title>AuthModule</title>
<polygon fill="#8dd3c7" stroke="black" points="352.55,-84.8 349.55,-88.8 328.55,-88.8 325.55,-84.8 265.45,-84.8 265.45,-48.8 352.55,-48.8 352.55,-84.8"/>
<text text-anchor="middle" x="309" y="-62.6" font-family="Times,serif" font-size="14.00">AuthModule</text>
</g>
<!-- AuthModule&#45;&gt;LayoutModule -->
<g id="edge5" class="edge">
<title>AuthModule&#45;&gt;LayoutModule</title>
<path fill="none" stroke="black" d="M342.4,-84.81C342.4,-100.85 342.4,-121.8 342.4,-121.8 342.4,-121.8 410.3,-121.8 410.3,-121.8"/>
<polygon fill="black" stroke="black" points="410.3,-125.3 420.3,-121.8 410.3,-118.3 410.3,-125.3"/>
</g>
<!-- MaterialModule -->
<g id="node7" class="node">
<title>MaterialModule</title>
<polygon fill="#8dd3c7" stroke="black" points="247.47,-84.8 244.47,-88.8 223.47,-88.8 220.47,-84.8 140.53,-84.8 140.53,-48.8 247.47,-48.8 247.47,-84.8"/>
<text text-anchor="middle" x="194" y="-62.6" font-family="Times,serif" font-size="14.00">MaterialModule</text>
</g>
<!-- MaterialModule&#45;&gt;LayoutModule -->
<g id="edge6" class="edge">
<title>MaterialModule&#45;&gt;LayoutModule</title>
<path fill="none" stroke="black" d="M194,-85.07C194,-103.36 194,-128.8 194,-128.8 194,-128.8 410.34,-128.8 410.34,-128.8"/>
<polygon fill="black" stroke="black" points="410.34,-132.3 420.34,-128.8 410.34,-125.3 410.34,-132.3"/>
</g>
<!-- SharedModule -->
<g id="node8" class="node">
<title>SharedModule</title>
<polygon fill="#8dd3c7" stroke="black" points="122.43,-84.8 119.43,-88.8 98.43,-88.8 95.43,-84.8 23.57,-84.8 23.57,-48.8 122.43,-48.8 122.43,-84.8"/>
<text text-anchor="middle" x="73" y="-62.6" font-family="Times,serif" font-size="14.00">SharedModule</text>
</g>
<!-- SharedModule&#45;&gt;LayoutModule -->
<g id="edge7" class="edge">
<title>SharedModule&#45;&gt;LayoutModule</title>
<path fill="none" stroke="black" d="M73,-84.93C73,-105.37 73,-135.8 73,-135.8 73,-135.8 410.12,-135.8 410.12,-135.8"/>
<polygon fill="black" stroke="black" points="410.12,-139.3 420.12,-135.8 410.12,-132.3 410.12,-139.3"/>
</g>
</g>
</svg>
