<?xml version="1.0" encoding="UTF-8" standalone="no"?>
<!DOCTYPE svg PUBLIC "-//W3C//DTD SVG 1.1//EN"
 "http://www.w3.org/Graphics/SVG/1.1/DTD/svg11.dtd">
<!-- Generated by graphviz version 5.0.0 (20220707.1540)
 -->
<!-- Title: dependencies Pages: 1 -->
<svg width="2235pt" height="174pt"
 viewBox="0.00 0.00 2235.00 173.80" xmlns="http://www.w3.org/2000/svg" xmlns:xlink="http://www.w3.org/1999/xlink">
<g id="graph0" class="graph" transform="scale(1 1) rotate(0) translate(4 169.8)">
<title>dependencies</title>
<polygon fill="white" stroke="transparent" points="-4,4 -4,-169.8 2231,-169.8 2231,4 -4,4"/>
<text text-anchor="middle" x="1113.5" y="-8.2" font-family="sans-serif" font-size="14.00">dependencies</text>
<g id="clust1" class="cluster">
<title>cluster_PublicModule</title>
<polygon fill="none" stroke="black" stroke-dasharray="1,5" points="8,-32.8 8,-157.8 2219,-157.8 2219,-32.8 8,-32.8"/>
</g>
<g id="clust2" class="cluster">
<title>cluster_PublicModule_declarations</title>
<polygon fill="none" stroke="black" points="639,-40.8 639,-92.8 2211,-92.8 2211,-40.8 639,-40.8"/>
</g>
<g id="clust15" class="cluster">
<title>cluster_PublicModule_imports</title>
<polygon fill="none" stroke="black" points="16,-40.8 16,-92.8 631,-92.8 631,-40.8 16,-40.8"/>
</g>
<!-- AboutPage -->
<g id="node1" class="node">
<title>AboutPage</title>
<polygon fill="#ffffb3" stroke="black" points="2203.21,-84.8 2124.79,-84.8 2124.79,-48.8 2203.21,-48.8 2203.21,-84.8"/>
<text text-anchor="middle" x="2164" y="-62.6" font-family="Times,serif" font-size="14.00">AboutPage</text>
</g>
<!-- PublicModule -->
<g id="node13" class="node">
<title>PublicModule</title>
<polygon fill="#8dd3c7" stroke="black" points="1178.83,-149.8 1175.83,-153.8 1154.83,-153.8 1151.83,-149.8 1083.17,-149.8 1083.17,-113.8 1178.83,-113.8 1178.83,-149.8"/>
<text text-anchor="middle" x="1131" y="-127.6" font-family="Times,serif" font-size="14.00">PublicModule</text>
</g>
<!-- AboutPage&#45;&gt;PublicModule -->
<g id="edge1" class="edge">
<title>AboutPage&#45;&gt;PublicModule</title>
<path fill="none" stroke="black" d="M2164,-85.12C2164,-108.46 2164,-145.8 2164,-145.8 2164,-145.8 1188.75,-145.8 1188.75,-145.8"/>
<polygon fill="black" stroke="black" points="1188.75,-142.3 1178.75,-145.8 1188.75,-149.3 1188.75,-142.3"/>
</g>
<!-- BlogPage -->
<g id="node2" class="node">
<title>BlogPage</title>
<polygon fill="#ffffb3" stroke="black" points="2107.44,-84.8 2036.56,-84.8 2036.56,-48.8 2107.44,-48.8 2107.44,-84.8"/>
<text text-anchor="middle" x="2072" y="-62.6" font-family="Times,serif" font-size="14.00">BlogPage</text>
</g>
<!-- BlogPage&#45;&gt;PublicModule -->
<g id="edge2" class="edge">
<title>BlogPage&#45;&gt;PublicModule</title>
<path fill="none" stroke="black" d="M2072,-85.09C2072,-107.01 2072,-140.8 2072,-140.8 2072,-140.8 1188.96,-140.8 1188.96,-140.8"/>
<polygon fill="black" stroke="black" points="1188.96,-137.3 1178.96,-140.8 1188.96,-144.3 1188.96,-137.3"/>
</g>
<!-- BrainTagsComponent -->
<g id="node3" class="node">
<title>BrainTagsComponent</title>
<polygon fill="#ffffb3" stroke="black" points="2018.65,-84.8 1879.35,-84.8 1879.35,-48.8 2018.65,-48.8 2018.65,-84.8"/>
<text text-anchor="middle" x="1949" y="-62.6" font-family="Times,serif" font-size="14.00">BrainTagsComponent</text>
</g>
<!-- BrainTagsComponent&#45;&gt;PublicModule -->
<g id="edge3" class="edge">
<title>BrainTagsComponent&#45;&gt;PublicModule</title>
<path fill="none" stroke="black" d="M1949,-84.83C1949,-105.57 1949,-136.8 1949,-136.8 1949,-136.8 1188.81,-136.8 1188.81,-136.8"/>
<polygon fill="black" stroke="black" points="1188.81,-133.3 1178.81,-136.8 1188.81,-140.3 1188.81,-133.3"/>
</g>
<!-- ContactComponent -->
<g id="node4" class="node">
<title>ContactComponent</title>
<polygon fill="#ffffb3" stroke="black" points="1861.38,-84.8 1736.62,-84.8 1736.62,-48.8 1861.38,-48.8 1861.38,-84.8"/>
<text text-anchor="middle" x="1799" y="-62.6" font-family="Times,serif" font-size="14.00">ContactComponent</text>
</g>
<!-- ContactComponent&#45;&gt;PublicModule -->
<g id="edge4" class="edge">
<title>ContactComponent&#45;&gt;PublicModule</title>
<path fill="none" stroke="black" d="M1799,-84.91C1799,-104.14 1799,-131.8 1799,-131.8 1799,-131.8 1188.77,-131.8 1188.77,-131.8"/>
<polygon fill="black" stroke="black" points="1188.77,-128.3 1178.77,-131.8 1188.77,-135.3 1188.77,-128.3"/>
</g>
<!-- CookiesPolicyPage -->
<g id="node5" class="node">
<title>CookiesPolicyPage</title>
<polygon fill="#ffffb3" stroke="black" points="1718.38,-84.8 1593.62,-84.8 1593.62,-48.8 1718.38,-48.8 1718.38,-84.8"/>
<text text-anchor="middle" x="1656" y="-62.6" font-family="Times,serif" font-size="14.00">CookiesPolicyPage</text>
</g>
<!-- CookiesPolicyPage&#45;&gt;PublicModule -->
<g id="edge5" class="edge">
<title>CookiesPolicyPage&#45;&gt;PublicModule</title>
<path fill="none" stroke="black" d="M1656,-85.1C1656,-103.07 1656,-127.8 1656,-127.8 1656,-127.8 1188.98,-127.8 1188.98,-127.8"/>
<polygon fill="black" stroke="black" points="1188.98,-124.3 1178.98,-127.8 1188.98,-131.3 1188.98,-124.3"/>
</g>
<!-- DashInfoComponent -->
<g id="node6" class="node">
<title>DashInfoComponent</title>
<polygon fill="#ffffb3" stroke="black" points="1575.93,-84.8 1442.07,-84.8 1442.07,-48.8 1575.93,-48.8 1575.93,-84.8"/>
<text text-anchor="middle" x="1509" y="-62.6" font-family="Times,serif" font-size="14.00">DashInfoComponent</text>
</g>
<!-- DashInfoComponent&#45;&gt;PublicModule -->
<g id="edge6" class="edge">
<title>DashInfoComponent&#45;&gt;PublicModule</title>
<path fill="none" stroke="black" d="M1509,-84.83C1509,-101.2 1509,-122.8 1509,-122.8 1509,-122.8 1188.87,-122.8 1188.87,-122.8"/>
<polygon fill="black" stroke="black" points="1188.87,-119.3 1178.87,-122.8 1188.87,-126.3 1188.87,-119.3"/>
</g>
<!-- GitgraphCvComponent -->
<g id="node7" class="node">
<title>GitgraphCvComponent</title>
<polygon fill="#ffffb3" stroke="black" points="1424.94,-84.8 1277.06,-84.8 1277.06,-48.8 1424.94,-48.8 1424.94,-84.8"/>
<text text-anchor="middle" x="1351" y="-62.6" font-family="Times,serif" font-size="14.00">GitgraphCvComponent</text>
</g>
<!-- GitgraphCvComponent&#45;&gt;PublicModule -->
<g id="edge7" class="edge">
<title>GitgraphCvComponent&#45;&gt;PublicModule</title>
<path fill="none" stroke="black" d="M1351,-84.99C1351,-99.98 1351,-118.8 1351,-118.8 1351,-118.8 1188.74,-118.8 1188.74,-118.8"/>
<polygon fill="black" stroke="black" points="1188.74,-115.3 1178.74,-118.8 1188.74,-122.3 1188.74,-115.3"/>
</g>
<!-- HomePage -->
<g id="node8" class="node">
<title>HomePage</title>
<polygon fill="#ffffb3" stroke="black" points="1259.93,-84.8 1182.07,-84.8 1182.07,-48.8 1259.93,-48.8 1259.93,-84.8"/>
<text text-anchor="middle" x="1221" y="-62.6" font-family="Times,serif" font-size="14.00">HomePage</text>
</g>
<!-- HomePage&#45;&gt;PublicModule -->
<g id="edge8" class="edge">
<title>HomePage&#45;&gt;PublicModule</title>
<path fill="none" stroke="black" d="M1182.13,-66.8C1176.02,-66.8 1171.67,-66.8 1171.67,-66.8 1171.67,-66.8 1171.67,-103.69 1171.67,-103.69"/>
<polygon fill="black" stroke="black" points="1168.17,-103.69 1171.67,-113.69 1175.17,-103.69 1168.17,-103.69"/>
</g>
<!-- PostPage -->
<g id="node9" class="node">
<title>PostPage</title>
<polygon fill="#ffffb3" stroke="black" points="1164.84,-84.8 1097.16,-84.8 1097.16,-48.8 1164.84,-48.8 1164.84,-84.8"/>
<text text-anchor="middle" x="1131" y="-62.6" font-family="Times,serif" font-size="14.00">PostPage</text>
</g>
<!-- PostPage&#45;&gt;PublicModule -->
<g id="edge9" class="edge">
<title>PostPage&#45;&gt;PublicModule</title>
<path fill="none" stroke="black" d="M1131,-84.91C1131,-84.91 1131,-103.79 1131,-103.79"/>
<polygon fill="black" stroke="black" points="1127.5,-103.79 1131,-113.79 1134.5,-103.79 1127.5,-103.79"/>
</g>
<!-- PrivacyPolicyPage -->
<g id="node10" class="node">
<title>PrivacyPolicyPage</title>
<polygon fill="#ffffb3" stroke="black" points="1078.76,-84.8 957.24,-84.8 957.24,-48.8 1078.76,-48.8 1078.76,-84.8"/>
<text text-anchor="middle" x="1018" y="-62.6" font-family="Times,serif" font-size="14.00">PrivacyPolicyPage</text>
</g>
<!-- PrivacyPolicyPage&#45;&gt;PublicModule -->
<g id="edge10" class="edge">
<title>PrivacyPolicyPage&#45;&gt;PublicModule</title>
<path fill="none" stroke="black" d="M1079.03,-66.8C1085.81,-66.8 1090.33,-66.8 1090.33,-66.8 1090.33,-66.8 1090.33,-103.69 1090.33,-103.69"/>
<polygon fill="black" stroke="black" points="1086.83,-103.69 1090.33,-113.69 1093.83,-103.69 1086.83,-103.69"/>
</g>
<!-- StudyHistComponent -->
<g id="node11" class="node">
<title>StudyHistComponent</title>
<polygon fill="#ffffb3" stroke="black" points="938.85,-84.8 801.15,-84.8 801.15,-48.8 938.85,-48.8 938.85,-84.8"/>
<text text-anchor="middle" x="870" y="-62.6" font-family="Times,serif" font-size="14.00">StudyHistComponent</text>
</g>
<!-- StudyHistComponent&#45;&gt;PublicModule -->
<g id="edge11" class="edge">
<title>StudyHistComponent&#45;&gt;PublicModule</title>
<path fill="none" stroke="black" d="M870,-84.99C870,-99.98 870,-118.8 870,-118.8 870,-118.8 1073.13,-118.8 1073.13,-118.8"/>
<polygon fill="black" stroke="black" points="1073.13,-122.3 1083.13,-118.8 1073.13,-115.3 1073.13,-122.3"/>
</g>
<!-- WorkHistComponent -->
<g id="node12" class="node">
<title>WorkHistComponent</title>
<polygon fill="#ffffb3" stroke="black" points="783.05,-84.8 646.95,-84.8 646.95,-48.8 783.05,-48.8 783.05,-84.8"/>
<text text-anchor="middle" x="715" y="-62.6" font-family="Times,serif" font-size="14.00">WorkHistComponent</text>
</g>
<!-- WorkHistComponent&#45;&gt;PublicModule -->
<g id="edge12" class="edge">
<title>WorkHistComponent&#45;&gt;PublicModule</title>
<path fill="none" stroke="black" d="M715,-84.83C715,-101.2 715,-122.8 715,-122.8 715,-122.8 1073.28,-122.8 1073.28,-122.8"/>
<polygon fill="black" stroke="black" points="1073.28,-126.3 1083.28,-122.8 1073.28,-119.3 1073.28,-126.3"/>
</g>
<!-- AdsModule -->
<g id="node14" class="node">
<title>AdsModule</title>
<polygon fill="#8dd3c7" stroke="black" points="623.11,-84.8 620.11,-88.8 599.11,-88.8 596.11,-84.8 540.89,-84.8 540.89,-48.8 623.11,-48.8 623.11,-84.8"/>
<text text-anchor="middle" x="582" y="-62.6" font-family="Times,serif" font-size="14.00">AdsModule</text>
</g>
<!-- AdsModule&#45;&gt;PublicModule -->
<g id="edge13" class="edge">
<title>AdsModule&#45;&gt;PublicModule</title>
<path fill="none" stroke="black" d="M582,-85.1C582,-103.07 582,-127.8 582,-127.8 582,-127.8 1073.24,-127.8 1073.24,-127.8"/>
<polygon fill="black" stroke="black" points="1073.24,-131.3 1083.24,-127.8 1073.24,-124.3 1073.24,-131.3"/>
</g>
<!-- LayoutModule -->
<g id="node15" class="node">
<title>LayoutModule</title>
<polygon fill="#8dd3c7" stroke="black" points="522.71,-84.8 519.71,-88.8 498.71,-88.8 495.71,-84.8 423.29,-84.8 423.29,-48.8 522.71,-48.8 522.71,-84.8"/>
<text text-anchor="middle" x="473" y="-62.6" font-family="Times,serif" font-size="14.00">LayoutModule</text>
</g>
<!-- LayoutModule&#45;&gt;PublicModule -->
<g id="edge14" class="edge">
<title>LayoutModule&#45;&gt;PublicModule</title>
<path fill="none" stroke="black" d="M473,-84.91C473,-104.14 473,-131.8 473,-131.8 473,-131.8 1073.15,-131.8 1073.15,-131.8"/>
<polygon fill="black" stroke="black" points="1073.15,-135.3 1083.15,-131.8 1073.15,-128.3 1073.15,-135.3"/>
</g>
<!-- MaterialModule -->
<g id="node16" class="node">
<title>MaterialModule</title>
<polygon fill="#8dd3c7" stroke="black" points="405.47,-84.8 402.47,-88.8 381.47,-88.8 378.47,-84.8 298.53,-84.8 298.53,-48.8 405.47,-48.8 405.47,-84.8"/>
<text text-anchor="middle" x="352" y="-62.6" font-family="Times,serif" font-size="14.00">MaterialModule</text>
</g>
<!-- MaterialModule&#45;&gt;PublicModule -->
<g id="edge15" class="edge">
<title>MaterialModule&#45;&gt;PublicModule</title>
<path fill="none" stroke="black" d="M352,-84.83C352,-105.57 352,-136.8 352,-136.8 352,-136.8 1073.15,-136.8 1073.15,-136.8"/>
<polygon fill="black" stroke="black" points="1073.15,-140.3 1083.15,-136.8 1073.15,-133.3 1073.15,-140.3"/>
</g>
<!-- PublicRoutingModule -->
<g id="node17" class="node">
<title>PublicRoutingModule</title>
<polygon fill="#8dd3c7" stroke="black" points="280.45,-84.8 277.45,-88.8 256.45,-88.8 253.45,-84.8 139.55,-84.8 139.55,-48.8 280.45,-48.8 280.45,-84.8"/>
<text text-anchor="middle" x="210" y="-62.6" font-family="Times,serif" font-size="14.00">PublicRoutingModule</text>
</g>
<!-- PublicRoutingModule&#45;&gt;PublicModule -->
<g id="edge16" class="edge">
<title>PublicRoutingModule&#45;&gt;PublicModule</title>
<path fill="none" stroke="black" d="M210,-85.09C210,-107.01 210,-140.8 210,-140.8 210,-140.8 1073.1,-140.8 1073.1,-140.8"/>
<polygon fill="black" stroke="black" points="1073.1,-144.3 1083.1,-140.8 1073.1,-137.3 1073.1,-144.3"/>
</g>
<!-- SharedModule -->
<g id="node18" class="node">
<title>SharedModule</title>
<polygon fill="#8dd3c7" stroke="black" points="122.43,-84.8 119.43,-88.8 98.43,-88.8 95.43,-84.8 23.57,-84.8 23.57,-48.8 122.43,-48.8 122.43,-84.8"/>
<text text-anchor="middle" x="73" y="-62.6" font-family="Times,serif" font-size="14.00">SharedModule</text>
</g>
<!-- SharedModule&#45;&gt;PublicModule -->
<g id="edge17" class="edge">
<title>SharedModule&#45;&gt;PublicModule</title>
<path fill="none" stroke="black" d="M73,-85.12C73,-108.46 73,-145.8 73,-145.8 73,-145.8 1073.14,-145.8 1073.14,-145.8"/>
<polygon fill="black" stroke="black" points="1073.14,-149.3 1083.14,-145.8 1073.14,-142.3 1073.14,-149.3"/>
</g>
</g>
</svg>
