<?xml version="1.0" encoding="UTF-8" standalone="no"?>
<!DOCTYPE svg PUBLIC "-//W3C//DTD SVG 1.1//EN"
 "http://www.w3.org/Graphics/SVG/1.1/DTD/svg11.dtd">
<!-- Generated by graphviz version 5.0.0 (20220707.1540)
 -->
<!-- Title: dependencies Pages: 1 -->
<svg width="482pt" height="174pt"
 viewBox="0.00 0.00 482.00 173.80" xmlns="http://www.w3.org/2000/svg" xmlns:xlink="http://www.w3.org/1999/xlink">
<g id="graph0" class="graph" transform="scale(1 1) rotate(0) translate(4 169.8)">
<title>dependencies</title>
<polygon fill="white" stroke="transparent" points="-4,4 -4,-169.8 478,-169.8 478,4 -4,4"/>
<text text-anchor="middle" x="237" y="-8.2" font-family="sans-serif" font-size="14.00">dependencies</text>
<g id="clust1" class="cluster">
<title>cluster_PublicModule</title>
<polygon fill="none" stroke="black" stroke-dasharray="1,5" points="8,-32.8 8,-157.8 466,-157.8 466,-32.8 8,-32.8"/>
</g>
<g id="clust2" class="cluster">
<title>cluster_PublicModule_declarations</title>
<polygon fill="none" stroke="black" points="180,-40.8 180,-92.8 458,-92.8 458,-40.8 180,-40.8"/>
</g>
<g id="clust6" class="cluster">
<title>cluster_PublicModule_imports</title>
<polygon fill="none" stroke="black" points="16,-40.8 16,-92.8 172,-92.8 172,-40.8 16,-40.8"/>
</g>
<!-- AboutPage -->
<g id="node1" class="node">
<title>AboutPage</title>
<polygon fill="#ffffb3" stroke="black" points="450.21,-84.8 371.79,-84.8 371.79,-48.8 450.21,-48.8 450.21,-84.8"/>
<text text-anchor="middle" x="411" y="-62.6" font-family="Times,serif" font-size="14.00">AboutPage</text>
</g>
<!-- PublicModule -->
<g id="node4" class="node">
<title>PublicModule</title>
<polygon fill="#8dd3c7" stroke="black" points="320.83,-149.8 317.83,-153.8 296.83,-153.8 293.83,-149.8 225.17,-149.8 225.17,-113.8 320.83,-113.8 320.83,-149.8"/>
<text text-anchor="middle" x="273" y="-127.6" font-family="Times,serif" font-size="14.00">PublicModule</text>
</g>
<!-- AboutPage&#45;&gt;PublicModule -->
<g id="edge1" class="edge">
<title>AboutPage&#45;&gt;PublicModule</title>
<path fill="none" stroke="black" d="M411,-84.91C411,-104.14 411,-131.8 411,-131.8 411,-131.8 330.88,-131.8 330.88,-131.8"/>
<polygon fill="black" stroke="black" points="330.88,-128.3 320.88,-131.8 330.88,-135.3 330.88,-128.3"/>
</g>
<!-- BlogPage -->
<g id="node2" class="node">
<title>BlogPage</title>
<polygon fill="#ffffb3" stroke="black" points="354.44,-84.8 283.56,-84.8 283.56,-48.8 354.44,-48.8 354.44,-84.8"/>
<text text-anchor="middle" x="319" y="-62.6" font-family="Times,serif" font-size="14.00">BlogPage</text>
</g>
<!-- BlogPage&#45;&gt;PublicModule -->
<g id="edge2" class="edge">
<title>BlogPage&#45;&gt;PublicModule</title>
<path fill="none" stroke="black" d="M302.22,-84.91C302.22,-84.91 302.22,-103.79 302.22,-103.79"/>
<polygon fill="black" stroke="black" points="298.72,-103.79 302.22,-113.79 305.72,-103.79 298.72,-103.79"/>
</g>
<!-- HomePage -->
<g id="node3" class="node">
<title>HomePage</title>
<polygon fill="#ffffb3" stroke="black" points="265.93,-84.8 188.07,-84.8 188.07,-48.8 265.93,-48.8 265.93,-84.8"/>
<text text-anchor="middle" x="227" y="-62.6" font-family="Times,serif" font-size="14.00">HomePage</text>
</g>
<!-- HomePage&#45;&gt;PublicModule -->
<g id="edge3" class="edge">
<title>HomePage&#45;&gt;PublicModule</title>
<path fill="none" stroke="black" d="M245.52,-84.91C245.52,-84.91 245.52,-103.79 245.52,-103.79"/>
<polygon fill="black" stroke="black" points="242.02,-103.79 245.52,-113.79 249.02,-103.79 242.02,-103.79"/>
</g>
<!-- PublicRoutingModule -->
<g id="node5" class="node">
<title>PublicRoutingModule</title>
<polygon fill="#8dd3c7" stroke="black" points="164.45,-84.8 161.45,-88.8 140.45,-88.8 137.45,-84.8 23.55,-84.8 23.55,-48.8 164.45,-48.8 164.45,-84.8"/>
<text text-anchor="middle" x="94" y="-62.6" font-family="Times,serif" font-size="14.00">PublicRoutingModule</text>
</g>
<!-- PublicRoutingModule&#45;&gt;PublicModule -->
<g id="edge4" class="edge">
<title>PublicRoutingModule&#45;&gt;PublicModule</title>
<path fill="none" stroke="black" d="M94,-84.91C94,-104.14 94,-131.8 94,-131.8 94,-131.8 215.03,-131.8 215.03,-131.8"/>
<polygon fill="black" stroke="black" points="215.03,-135.3 225.03,-131.8 215.03,-128.3 215.03,-135.3"/>
</g>
</g>
</svg>
