<?xml version="1.0" encoding="UTF-8" standalone="no"?>
<!DOCTYPE svg PUBLIC "-//W3C//DTD SVG 1.1//EN"
 "http://www.w3.org/Graphics/SVG/1.1/DTD/svg11.dtd">
<!-- Generated by graphviz version 5.0.0 (20220707.1540)
 -->
<!-- Title: dependencies Pages: 1 -->
<svg width="1267pt" height="174pt"
 viewBox="0.00 0.00 1267.00 173.80" xmlns="http://www.w3.org/2000/svg" xmlns:xlink="http://www.w3.org/1999/xlink">
<g id="graph0" class="graph" transform="scale(1 1) rotate(0) translate(4 169.8)">
<title>dependencies</title>
<polygon fill="white" stroke="transparent" points="-4,4 -4,-169.8 1263,-169.8 1263,4 -4,4"/>
<text text-anchor="middle" x="629.5" y="-8.2" font-family="sans-serif" font-size="14.00">dependencies</text>
<g id="clust1" class="cluster">
<title>cluster_BlogModule</title>
<polygon fill="none" stroke="black" stroke-dasharray="1,5" points="8,-32.8 8,-157.8 1251,-157.8 1251,-32.8 8,-32.8"/>
</g>
<g id="clust2" class="cluster">
<title>cluster_BlogModule_declarations</title>
<polygon fill="none" stroke="black" points="513,-40.8 513,-92.8 1243,-92.8 1243,-40.8 513,-40.8"/>
</g>
<g id="clust8" class="cluster">
<title>cluster_BlogModule_imports</title>
<polygon fill="none" stroke="black" points="16,-40.8 16,-92.8 505,-92.8 505,-40.8 16,-40.8"/>
</g>
<!-- BlogComponent -->
<g id="node1" class="node">
<title>BlogComponent</title>
<polygon fill="#ffffb3" stroke="black" points="1235.06,-84.8 1126.94,-84.8 1126.94,-48.8 1235.06,-48.8 1235.06,-84.8"/>
<text text-anchor="middle" x="1181" y="-62.6" font-family="Times,serif" font-size="14.00">BlogComponent</text>
</g>
<!-- BlogModule -->
<g id="node6" class="node">
<title>BlogModule</title>
<polygon fill="#8dd3c7" stroke="black" points="632.28,-149.8 629.28,-153.8 608.28,-153.8 605.28,-149.8 545.72,-149.8 545.72,-113.8 632.28,-113.8 632.28,-149.8"/>
<text text-anchor="middle" x="589" y="-127.6" font-family="Times,serif" font-size="14.00">BlogModule</text>
</g>
<!-- BlogComponent&#45;&gt;BlogModule -->
<g id="edge1" class="edge">
<title>BlogComponent&#45;&gt;BlogModule</title>
<path fill="none" stroke="black" d="M1181,-84.81C1181,-107.29 1181,-142.8 1181,-142.8 1181,-142.8 642.53,-142.8 642.53,-142.8"/>
<polygon fill="black" stroke="black" points="642.53,-139.3 632.53,-142.8 642.53,-146.3 642.53,-139.3"/>
</g>
<!-- CreatePostComponent -->
<g id="node2" class="node">
<title>CreatePostComponent</title>
<polygon fill="#ffffb3" stroke="black" points="1108.99,-84.8 967.01,-84.8 967.01,-48.8 1108.99,-48.8 1108.99,-84.8"/>
<text text-anchor="middle" x="1038" y="-62.6" font-family="Times,serif" font-size="14.00">CreatePostComponent</text>
</g>
<!-- CreatePostComponent&#45;&gt;BlogModule -->
<g id="edge2" class="edge">
<title>CreatePostComponent&#45;&gt;BlogModule</title>
<path fill="none" stroke="black" d="M1038,-84.93C1038,-105.37 1038,-135.8 1038,-135.8 1038,-135.8 642.46,-135.8 642.46,-135.8"/>
<polygon fill="black" stroke="black" points="642.46,-132.3 632.46,-135.8 642.46,-139.3 642.46,-132.3"/>
</g>
<!-- EditPostComponent -->
<g id="node3" class="node">
<title>EditPostComponent</title>
<polygon fill="#ffffb3" stroke="black" points="949.29,-84.8 820.71,-84.8 820.71,-48.8 949.29,-48.8 949.29,-84.8"/>
<text text-anchor="middle" x="885" y="-62.6" font-family="Times,serif" font-size="14.00">EditPostComponent</text>
</g>
<!-- EditPostComponent&#45;&gt;BlogModule -->
<g id="edge3" class="edge">
<title>EditPostComponent&#45;&gt;BlogModule</title>
<path fill="none" stroke="black" d="M885,-85.07C885,-103.36 885,-128.8 885,-128.8 885,-128.8 642.36,-128.8 642.36,-128.8"/>
<polygon fill="black" stroke="black" points="642.36,-125.3 632.36,-128.8 642.36,-132.3 642.36,-125.3"/>
</g>
<!-- ListPostComponent -->
<g id="node4" class="node">
<title>ListPostComponent</title>
<polygon fill="#ffffb3" stroke="black" points="802.73,-84.8 675.27,-84.8 675.27,-48.8 802.73,-48.8 802.73,-84.8"/>
<text text-anchor="middle" x="739" y="-62.6" font-family="Times,serif" font-size="14.00">ListPostComponent</text>
</g>
<!-- ListPostComponent&#45;&gt;BlogModule -->
<g id="edge4" class="edge">
<title>ListPostComponent&#45;&gt;BlogModule</title>
<path fill="none" stroke="black" d="M739,-84.81C739,-100.85 739,-121.8 739,-121.8 739,-121.8 642.39,-121.8 642.39,-121.8"/>
<polygon fill="black" stroke="black" points="642.39,-118.3 632.39,-121.8 642.39,-125.3 642.39,-118.3"/>
</g>
<!-- ViewPostComponent -->
<g id="node5" class="node">
<title>ViewPostComponent</title>
<polygon fill="#ffffb3" stroke="black" points="656.78,-84.8 521.22,-84.8 521.22,-48.8 656.78,-48.8 656.78,-84.8"/>
<text text-anchor="middle" x="589" y="-62.6" font-family="Times,serif" font-size="14.00">ViewPostComponent</text>
</g>
<!-- ViewPostComponent&#45;&gt;BlogModule -->
<g id="edge5" class="edge">
<title>ViewPostComponent&#45;&gt;BlogModule</title>
<path fill="none" stroke="black" d="M589,-84.91C589,-84.91 589,-103.79 589,-103.79"/>
<polygon fill="black" stroke="black" points="585.5,-103.79 589,-113.79 592.5,-103.79 585.5,-103.79"/>
</g>
<!-- AdsModule -->
<g id="node7" class="node">
<title>AdsModule</title>
<polygon fill="#8dd3c7" stroke="black" points="497.11,-84.8 494.11,-88.8 473.11,-88.8 470.11,-84.8 414.89,-84.8 414.89,-48.8 497.11,-48.8 497.11,-84.8"/>
<text text-anchor="middle" x="456" y="-62.6" font-family="Times,serif" font-size="14.00">AdsModule</text>
</g>
<!-- AdsModule&#45;&gt;BlogModule -->
<g id="edge6" class="edge">
<title>AdsModule&#45;&gt;BlogModule</title>
<path fill="none" stroke="black" d="M456,-84.81C456,-100.85 456,-121.8 456,-121.8 456,-121.8 535.45,-121.8 535.45,-121.8"/>
<polygon fill="black" stroke="black" points="535.45,-125.3 545.45,-121.8 535.45,-118.3 535.45,-125.3"/>
</g>
<!-- BlogRoutingModule -->
<g id="node8" class="node">
<title>BlogRoutingModule</title>
<polygon fill="#8dd3c7" stroke="black" points="396.9,-84.8 393.9,-88.8 372.9,-88.8 369.9,-84.8 265.1,-84.8 265.1,-48.8 396.9,-48.8 396.9,-84.8"/>
<text text-anchor="middle" x="331" y="-62.6" font-family="Times,serif" font-size="14.00">BlogRoutingModule</text>
</g>
<!-- BlogRoutingModule&#45;&gt;BlogModule -->
<g id="edge7" class="edge">
<title>BlogRoutingModule&#45;&gt;BlogModule</title>
<path fill="none" stroke="black" d="M331,-85.07C331,-103.36 331,-128.8 331,-128.8 331,-128.8 535.53,-128.8 535.53,-128.8"/>
<polygon fill="black" stroke="black" points="535.53,-132.3 545.53,-128.8 535.53,-125.3 535.53,-132.3"/>
</g>
<!-- MaterialModule -->
<g id="node9" class="node">
<title>MaterialModule</title>
<polygon fill="#8dd3c7" stroke="black" points="247.47,-84.8 244.47,-88.8 223.47,-88.8 220.47,-84.8 140.53,-84.8 140.53,-48.8 247.47,-48.8 247.47,-84.8"/>
<text text-anchor="middle" x="194" y="-62.6" font-family="Times,serif" font-size="14.00">MaterialModule</text>
</g>
<!-- MaterialModule&#45;&gt;BlogModule -->
<g id="edge8" class="edge">
<title>MaterialModule&#45;&gt;BlogModule</title>
<path fill="none" stroke="black" d="M194,-84.93C194,-105.37 194,-135.8 194,-135.8 194,-135.8 535.6,-135.8 535.6,-135.8"/>
<polygon fill="black" stroke="black" points="535.6,-139.3 545.6,-135.8 535.6,-132.3 535.6,-139.3"/>
</g>
<!-- SharedModule -->
<g id="node10" class="node">
<title>SharedModule</title>
<polygon fill="#8dd3c7" stroke="black" points="122.43,-84.8 119.43,-88.8 98.43,-88.8 95.43,-84.8 23.57,-84.8 23.57,-48.8 122.43,-48.8 122.43,-84.8"/>
<text text-anchor="middle" x="73" y="-62.6" font-family="Times,serif" font-size="14.00">SharedModule</text>
</g>
<!-- SharedModule&#45;&gt;BlogModule -->
<g id="edge9" class="edge">
<title>SharedModule&#45;&gt;BlogModule</title>
<path fill="none" stroke="black" d="M73,-84.81C73,-107.29 73,-142.8 73,-142.8 73,-142.8 535.45,-142.8 535.45,-142.8"/>
<polygon fill="black" stroke="black" points="535.45,-146.3 545.45,-142.8 535.45,-139.3 535.45,-146.3"/>
</g>
</g>
</svg>
