<?xml version="1.0" encoding="UTF-8" standalone="no"?>
<!DOCTYPE svg PUBLIC "-//W3C//DTD SVG 1.1//EN"
 "http://www.w3.org/Graphics/SVG/1.1/DTD/svg11.dtd">
<!-- Generated by graphviz version 5.0.0 (20220707.1540)
 -->
<!-- Title: dependencies Pages: 1 -->
<svg width="1092pt" height="247pt"
 viewBox="0.00 0.00 1092.00 246.80" xmlns="http://www.w3.org/2000/svg" xmlns:xlink="http://www.w3.org/1999/xlink">
<g id="graph0" class="graph" transform="scale(1 1) rotate(0) translate(4 242.8)">
<title>dependencies</title>
<polygon fill="white" stroke="transparent" points="-4,4 -4,-242.8 1088,-242.8 1088,4 -4,4"/>
<text text-anchor="middle" x="542" y="-8.2" font-family="sans-serif" font-size="14.00">dependencies</text>
<g id="clust1" class="cluster">
<title>cluster_AdminModule</title>
<polygon fill="none" stroke="black" stroke-dasharray="1,5" points="8,-32.8 8,-157.8 312,-157.8 312,-32.8 8,-32.8"/>
</g>
<g id="clust2" class="cluster">
<title>cluster_AdminModule_declarations</title>
<polygon fill="none" stroke="black" points="184,-40.8 184,-92.8 304,-92.8 304,-40.8 184,-40.8"/>
</g>
<g id="clust4" class="cluster">
<title>cluster_AdminModule_imports</title>
<polygon fill="none" stroke="black" points="16,-40.8 16,-92.8 176,-92.8 176,-40.8 16,-40.8"/>
</g>
<g id="clust14" class="cluster">
<title>cluster_AppModule</title>
<polygon fill="none" stroke="black" stroke-dasharray="1,5" points="320,-32.8 320,-230.8 610,-230.8 610,-32.8 320,-32.8"/>
</g>
<g id="clust15" class="cluster">
<title>cluster_AppModule_declarations</title>
<polygon fill="none" stroke="black" points="480,-40.8 480,-92.8 602,-92.8 602,-40.8 480,-40.8"/>
</g>
<g id="clust17" class="cluster">
<title>cluster_AppModule_imports</title>
<polygon fill="none" stroke="black" points="328,-40.8 328,-92.8 472,-92.8 472,-40.8 328,-40.8"/>
</g>
<g id="clust19" class="cluster">
<title>cluster_AppModule_bootstrap</title>
<polygon fill="none" stroke="black" points="408,-170.8 408,-222.8 532,-222.8 532,-170.8 408,-170.8"/>
</g>
<g id="clust39" class="cluster">
<title>cluster_PublicModule</title>
<polygon fill="none" stroke="black" stroke-dasharray="1,5" points="618,-32.8 618,-157.8 1076,-157.8 1076,-32.8 618,-32.8"/>
</g>
<g id="clust40" class="cluster">
<title>cluster_PublicModule_declarations</title>
<polygon fill="none" stroke="black" points="790,-40.8 790,-92.8 1068,-92.8 1068,-40.8 790,-40.8"/>
</g>
<g id="clust44" class="cluster">
<title>cluster_PublicModule_imports</title>
<polygon fill="none" stroke="black" points="626,-40.8 626,-92.8 782,-92.8 782,-40.8 626,-40.8"/>
</g>
<!-- DashboardPage -->
<g id="node1" class="node">
<title>DashboardPage</title>
<polygon fill="#ffffb3" stroke="black" points="295.86,-84.8 192.14,-84.8 192.14,-48.8 295.86,-48.8 295.86,-84.8"/>
<text text-anchor="middle" x="244" y="-62.6" font-family="Times,serif" font-size="14.00">DashboardPage</text>
</g>
<!-- AdminModule -->
<g id="node2" class="node">
<title>AdminModule</title>
<polygon fill="#8dd3c7" stroke="black" points="219.44,-149.8 216.44,-153.8 195.44,-153.8 192.44,-149.8 120.56,-149.8 120.56,-113.8 219.44,-113.8 219.44,-149.8"/>
<text text-anchor="middle" x="170" y="-127.6" font-family="Times,serif" font-size="14.00">AdminModule</text>
</g>
<!-- DashboardPage&#45;&gt;AdminModule -->
<g id="edge1" class="edge">
<title>DashboardPage&#45;&gt;AdminModule</title>
<path fill="none" stroke="black" d="M205.64,-84.91C205.64,-84.91 205.64,-103.79 205.64,-103.79"/>
<polygon fill="black" stroke="black" points="202.14,-103.79 205.64,-113.79 209.14,-103.79 202.14,-103.79"/>
</g>
<!-- AdminRoutingModule -->
<g id="node3" class="node">
<title>AdminRoutingModule</title>
<polygon fill="#8dd3c7" stroke="black" points="167.56,-84.8 164.56,-88.8 143.56,-88.8 140.56,-84.8 24.44,-84.8 24.44,-48.8 167.56,-48.8 167.56,-84.8"/>
<text text-anchor="middle" x="96" y="-62.6" font-family="Times,serif" font-size="14.00">AdminRoutingModule</text>
</g>
<!-- AdminRoutingModule&#45;&gt;AdminModule -->
<g id="edge2" class="edge">
<title>AdminRoutingModule&#45;&gt;AdminModule</title>
<path fill="none" stroke="black" d="M144.28,-84.91C144.28,-84.91 144.28,-103.79 144.28,-103.79"/>
<polygon fill="black" stroke="black" points="140.78,-103.79 144.28,-113.79 147.78,-103.79 140.78,-103.79"/>
</g>
<!-- AppComponent -->
<g id="node4" class="node">
<title>AppComponent</title>
<polygon fill="#ffffb3" stroke="black" points="593.94,-84.8 488.06,-84.8 488.06,-48.8 593.94,-48.8 593.94,-84.8"/>
<text text-anchor="middle" x="541" y="-62.6" font-family="Times,serif" font-size="14.00">AppComponent</text>
</g>
<!-- AppModule -->
<g id="node5" class="node">
<title>AppModule</title>
<polygon fill="#8dd3c7" stroke="black" points="511.66,-149.8 508.66,-153.8 487.66,-153.8 484.66,-149.8 428.34,-149.8 428.34,-113.8 511.66,-113.8 511.66,-149.8"/>
<text text-anchor="middle" x="470" y="-127.6" font-family="Times,serif" font-size="14.00">AppModule</text>
</g>
<!-- AppComponent&#45;&gt;AppModule -->
<g id="edge3" class="edge">
<title>AppComponent&#45;&gt;AppModule</title>
<path fill="none" stroke="black" d="M500.06,-84.91C500.06,-84.91 500.06,-103.79 500.06,-103.79"/>
<polygon fill="black" stroke="black" points="496.56,-103.79 500.06,-113.79 503.56,-103.79 496.56,-103.79"/>
</g>
<!-- AppComponent  -->
<g id="node7" class="node">
<title>AppComponent </title>
<polygon fill="#80b1d3" stroke="black" points="524.44,-214.8 415.56,-214.8 415.56,-178.8 524.44,-178.8 524.44,-214.8"/>
<text text-anchor="middle" x="470" y="-192.6" font-family="Times,serif" font-size="14.00">AppComponent </text>
</g>
<!-- AppModule&#45;&gt;AppComponent  -->
<g id="edge5" class="edge">
<title>AppModule&#45;&gt;AppComponent </title>
<path fill="none" stroke="black" stroke-dasharray="1,5" d="M470,-149.91C470,-149.91 470,-168.79 470,-168.79"/>
<polygon fill="black" stroke="black" points="466.5,-168.79 470,-178.79 473.5,-168.79 466.5,-168.79"/>
</g>
<!-- AppRoutingModule -->
<g id="node6" class="node">
<title>AppRoutingModule</title>
<polygon fill="#8dd3c7" stroke="black" points="464.28,-84.8 461.28,-88.8 440.28,-88.8 437.28,-84.8 335.72,-84.8 335.72,-48.8 464.28,-48.8 464.28,-84.8"/>
<text text-anchor="middle" x="400" y="-62.6" font-family="Times,serif" font-size="14.00">AppRoutingModule</text>
</g>
<!-- AppRoutingModule&#45;&gt;AppModule -->
<g id="edge4" class="edge">
<title>AppRoutingModule&#45;&gt;AppModule</title>
<path fill="none" stroke="black" d="M446.28,-84.91C446.28,-84.91 446.28,-103.79 446.28,-103.79"/>
<polygon fill="black" stroke="black" points="442.78,-103.79 446.28,-113.79 449.78,-103.79 442.78,-103.79"/>
</g>
<!-- AboutPage -->
<g id="node8" class="node">
<title>AboutPage</title>
<polygon fill="#ffffb3" stroke="black" points="1060.21,-84.8 981.79,-84.8 981.79,-48.8 1060.21,-48.8 1060.21,-84.8"/>
<text text-anchor="middle" x="1021" y="-62.6" font-family="Times,serif" font-size="14.00">AboutPage</text>
</g>
<!-- PublicModule -->
<g id="node11" class="node">
<title>PublicModule</title>
<polygon fill="#8dd3c7" stroke="black" points="930.83,-149.8 927.83,-153.8 906.83,-153.8 903.83,-149.8 835.17,-149.8 835.17,-113.8 930.83,-113.8 930.83,-149.8"/>
<text text-anchor="middle" x="883" y="-127.6" font-family="Times,serif" font-size="14.00">PublicModule</text>
</g>
<!-- AboutPage&#45;&gt;PublicModule -->
<g id="edge6" class="edge">
<title>AboutPage&#45;&gt;PublicModule</title>
<path fill="none" stroke="black" d="M1021,-84.91C1021,-104.14 1021,-131.8 1021,-131.8 1021,-131.8 940.88,-131.8 940.88,-131.8"/>
<polygon fill="black" stroke="black" points="940.88,-128.3 930.88,-131.8 940.88,-135.3 940.88,-128.3"/>
</g>
<!-- BlogPage -->
<g id="node9" class="node">
<title>BlogPage</title>
<polygon fill="#ffffb3" stroke="black" points="964.44,-84.8 893.56,-84.8 893.56,-48.8 964.44,-48.8 964.44,-84.8"/>
<text text-anchor="middle" x="929" y="-62.6" font-family="Times,serif" font-size="14.00">BlogPage</text>
</g>
<!-- BlogPage&#45;&gt;PublicModule -->
<g id="edge7" class="edge">
<title>BlogPage&#45;&gt;PublicModule</title>
<path fill="none" stroke="black" d="M912.22,-84.91C912.22,-84.91 912.22,-103.79 912.22,-103.79"/>
<polygon fill="black" stroke="black" points="908.72,-103.79 912.22,-113.79 915.72,-103.79 908.72,-103.79"/>
</g>
<!-- HomePage -->
<g id="node10" class="node">
<title>HomePage</title>
<polygon fill="#ffffb3" stroke="black" points="875.93,-84.8 798.07,-84.8 798.07,-48.8 875.93,-48.8 875.93,-84.8"/>
<text text-anchor="middle" x="837" y="-62.6" font-family="Times,serif" font-size="14.00">HomePage</text>
</g>
<!-- HomePage&#45;&gt;PublicModule -->
<g id="edge8" class="edge">
<title>HomePage&#45;&gt;PublicModule</title>
<path fill="none" stroke="black" d="M855.52,-84.91C855.52,-84.91 855.52,-103.79 855.52,-103.79"/>
<polygon fill="black" stroke="black" points="852.02,-103.79 855.52,-113.79 859.02,-103.79 852.02,-103.79"/>
</g>
<!-- PublicRoutingModule -->
<g id="node12" class="node">
<title>PublicRoutingModule</title>
<polygon fill="#8dd3c7" stroke="black" points="774.45,-84.8 771.45,-88.8 750.45,-88.8 747.45,-84.8 633.55,-84.8 633.55,-48.8 774.45,-48.8 774.45,-84.8"/>
<text text-anchor="middle" x="704" y="-62.6" font-family="Times,serif" font-size="14.00">PublicRoutingModule</text>
</g>
<!-- PublicRoutingModule&#45;&gt;PublicModule -->
<g id="edge9" class="edge">
<title>PublicRoutingModule&#45;&gt;PublicModule</title>
<path fill="none" stroke="black" d="M704,-84.91C704,-104.14 704,-131.8 704,-131.8 704,-131.8 825.03,-131.8 825.03,-131.8"/>
<polygon fill="black" stroke="black" points="825.03,-135.3 835.03,-131.8 825.03,-128.3 825.03,-135.3"/>
</g>
</g>
</svg>
